<svg width="45" height="45" viewBox="0 0 45 45" fill="none" xmlns="http://www.w3.org/2000/svg">
<path d="M35.1 7.21911e-06H9C7.07214 -0.0043218 5.19488 0.616753 3.65 1.77001C3.40707 1.95098 3.24537 2.2205 3.2 2.52001C3.1584 2.81979 3.23358 3.12409 3.41 3.37001C3.59266 3.60771 3.86025 3.76547 4.15667 3.81021C4.45309 3.85496 4.75532 3.78321 5 3.61001C6.15542 2.74885 7.55897 2.28568 9 2.29001H35.1C36.8797 2.29264 38.5859 3.00012 39.8453 4.25763C41.1047 5.51514 41.8147 7.2203 41.82 9.00001V26.12C41.8174 27.9015 41.1085 29.6092 39.8488 30.8688C38.5892 32.1285 36.8814 32.8374 35.1 32.84H24.1C23.8949 32.8374 23.6915 32.8769 23.5023 32.956C23.3131 33.0351 23.1422 33.1522 23 33.3L14.22 42.75V34.31C14.22 33.9201 14.0651 33.5462 13.7894 33.2706C13.5138 32.9949 13.1399 32.84 12.75 32.84H9C7.21856 32.8374 5.51084 32.1285 4.25116 30.8688C2.99149 29.6092 2.28264 27.9015 2.28 26.12V9.00001C2.28393 7.64845 2.69897 6.33007 3.47 5.22001C3.64006 4.96733 3.70392 4.65791 3.64779 4.35855C3.59166 4.05919 3.42004 3.79392 3.17 3.62001C3.04569 3.53461 2.90566 3.47472 2.75804 3.44383C2.61041 3.41293 2.45813 3.41163 2.31 3.44001C2.01134 3.50026 1.74679 3.67187 1.57 3.92001C0.546996 5.41658 -0.000223959 7.1872 6.8759e-08 9.00001V26.12C6.8759e-08 28.507 0.948212 30.7961 2.63604 32.484C4.32387 34.1718 6.61305 35.12 9 35.12H11.92V42.74C11.9189 43.1908 12.0538 43.6315 12.3072 44.0043C12.5605 44.3772 12.9205 44.665 13.34 44.83C13.6037 44.9367 13.8856 44.9911 14.17 44.99C14.4772 44.9888 14.7809 44.9252 15.0628 44.8032C15.3447 44.6811 15.5989 44.5032 15.81 44.28L24.42 35.12H35.1C37.4869 35.12 39.7761 34.1718 41.464 32.484C43.1518 30.7961 44.1 28.507 44.1 26.12V9.00001C44.1 6.61306 43.1518 4.32387 41.464 2.63605C39.7761 0.948219 37.4869 7.21911e-06 35.1 7.21911e-06Z" fill="url(#paint0_linear)"/>
<defs>
<linearGradient id="paint0_linear" x1="6.8759e-08" y1="22.5" x2="44.11" y2="22.5" gradientUnits="userSpaceOnUse">
<stop stop-color="#F5841F"/>
<stop offset="0.49" stop-color="#EA1E25"/>
<stop offset="1" stop-color="#B32824"/>
</linearGradient>
</defs>
</svg>
