<svg width="43" height="44" viewBox="0 0 43 44" fill="none" xmlns="http://www.w3.org/2000/svg">
<g clip-path="url(#clip0)">
<path d="M22.66 21.45V1.24C22.66 0.911132 22.5293 0.595733 22.2968 0.363188C22.0642 0.130642 21.7489 0 21.42 0C21.0911 0 20.7757 0.130642 20.5432 0.363188C20.3106 0.595733 20.18 0.911132 20.18 1.24V21.45C18.7597 21.7377 17.4826 22.5077 16.5652 23.6295C15.6479 24.7513 15.1467 26.1559 15.1467 27.605C15.1467 29.0541 15.6479 30.4587 16.5652 31.5805C17.4826 32.7023 18.7597 33.4723 20.18 33.76V42.76C20.18 43.0889 20.3106 43.4043 20.5432 43.6368C20.7757 43.8694 21.0911 44 21.42 44C21.7489 44 22.0642 43.8694 22.2968 43.6368C22.5293 43.4043 22.66 43.0889 22.66 42.76V33.76C24.0803 33.4723 25.3574 32.7023 26.2747 31.5805C27.1921 30.4587 27.6932 29.0541 27.6932 27.605C27.6932 26.1559 27.1921 24.7513 26.2747 23.6295C25.3574 22.5077 24.0803 21.7377 22.66 21.45ZM21.42 31.45C20.6684 31.45 19.9337 31.2271 19.3088 30.8096C18.6839 30.392 18.1969 29.7986 17.9092 29.1042C17.6216 28.4098 17.5464 27.6458 17.693 26.9087C17.8396 26.1715 18.2015 25.4944 18.733 24.963C19.2644 24.4316 19.9415 24.0696 20.6786 23.923C21.4158 23.7764 22.1798 23.8516 22.8742 24.1393C23.5685 24.4269 24.162 24.9139 24.5796 25.5388C24.9971 26.1637 25.22 26.8984 25.22 27.65C25.2068 28.6491 24.8007 29.6029 24.0895 30.3047C23.3782 31.0066 22.4192 31.4001 21.42 31.4V31.45Z" fill="url(#paint0_linear)"/>
<path d="M7.51005 11.08V1.23999C7.51005 1.07518 7.47759 0.911981 7.41452 0.759718C7.35145 0.607454 7.25901 0.469104 7.14247 0.352566C7.02593 0.236029 6.88758 0.143586 6.73532 0.0805165C6.58306 0.0174469 6.41986 -0.0150146 6.25505 -0.0150146C6.09024 -0.0150146 5.92705 0.0174469 5.77478 0.0805165C5.62252 0.143586 5.48417 0.236029 5.36763 0.352566C5.25109 0.469104 5.15865 0.607454 5.09558 0.759718C5.03251 0.911981 5.00005 1.07518 5.00005 1.23999V11.08C3.57976 11.3677 2.30267 12.1377 1.38532 13.2595C0.467962 14.3813 -0.0332031 15.7859 -0.0332031 17.235C-0.0332031 18.6841 0.467962 20.0887 1.38532 21.2105C2.30267 22.3323 3.57976 23.1023 5.00005 23.39V42.75C4.9846 42.9215 5.00505 43.0944 5.06009 43.2576C5.11514 43.4207 5.20357 43.5707 5.31975 43.6978C5.43594 43.8249 5.57733 43.9264 5.73492 43.9959C5.89251 44.0654 6.06283 44.1012 6.23505 44.1012C6.40727 44.1012 6.5776 44.0654 6.73519 43.9959C6.89277 43.9264 7.03416 43.8249 7.15035 43.6978C7.26653 43.5707 7.35497 43.4207 7.41001 43.2576C7.46505 43.0944 7.4855 42.9215 7.47005 42.75V23.38C8.8933 23.0975 10.1745 22.33 11.0952 21.2086C12.016 20.0871 12.5192 18.681 12.5192 17.23C12.5192 15.779 12.016 14.3729 11.0952 13.2514C10.1745 12.1299 8.8933 11.3625 7.47005 11.08H7.51005ZM6.28005 21C5.52848 21 4.79379 20.7771 4.16888 20.3596C3.54398 19.942 3.05692 19.3485 2.76931 18.6542C2.4817 17.9598 2.40644 17.1958 2.55307 16.4586C2.69969 15.7215 3.06161 15.0444 3.59305 14.513C4.12449 13.9815 4.80158 13.6196 5.53871 13.473C6.27584 13.3264 7.03989 13.4016 7.73425 13.6892C8.42861 13.9769 9.02209 14.4639 9.43964 15.0888C9.85719 15.7137 10.0801 16.4484 10.0801 17.2C10.0774 18.207 9.67621 19.172 8.96414 19.8841C8.25208 20.5961 7.28706 20.9973 6.28005 21Z" fill="url(#paint1_linear)"/>
<path d="M37.71 11.08V1.24C37.71 0.911131 37.5794 0.595733 37.3468 0.363188C37.1143 0.130642 36.7989 0 36.47 0C36.1412 0 35.8258 0.130642 35.5932 0.363188C35.3607 0.595733 35.23 0.911131 35.23 1.24V11.08C33.8097 11.3677 32.5327 12.1377 31.6153 13.2595C30.6979 14.3813 30.1968 15.7859 30.1968 17.235C30.1968 18.6841 30.6979 20.0887 31.6153 21.2105C32.5327 22.3323 33.8097 23.1023 35.23 23.39V42.76C35.23 43.0889 35.3607 43.4043 35.5932 43.6368C35.8258 43.8694 36.1412 44 36.47 44C36.7989 44 37.1143 43.8694 37.3468 43.6368C37.5794 43.4043 37.71 43.0889 37.71 42.76V23.38C39.1333 23.0975 40.4145 22.3301 41.3352 21.2086C42.2559 20.0871 42.7592 18.681 42.7592 17.23C42.7592 15.779 42.2559 14.3729 41.3352 13.2514C40.4145 12.1299 39.1333 11.3625 37.71 11.08ZM36.47 21C35.7185 21 34.9838 20.7771 34.3589 20.3596C33.734 19.942 33.2469 19.3486 32.9593 18.6542C32.6717 17.9598 32.5964 17.1958 32.743 16.4587C32.8897 15.7215 33.2516 15.0444 33.783 14.513C34.3145 13.9816 34.9916 13.6196 35.7287 13.473C36.4658 13.3264 37.2299 13.4016 37.9242 13.6893C38.6186 13.9769 39.2121 14.4639 39.6296 15.0888C40.0472 15.7137 40.27 16.4484 40.27 17.2C40.27 18.2078 39.8697 19.1744 39.157 19.887C38.4444 20.5996 37.4779 21 36.47 21Z" fill="url(#paint2_linear)"/>
</g>
<defs>
<linearGradient id="paint0_linear" x1="15.14" y1="22" x2="27.69" y2="22" gradientUnits="userSpaceOnUse">
<stop stop-color="#F5841F"/>
<stop offset="0.49" stop-color="#EA1E25"/>
<stop offset="1" stop-color="#B32824"/>
</linearGradient>
<linearGradient id="paint1_linear" x1="-0.0332031" y1="970.542" x2="157.5" y2="970.542" gradientUnits="userSpaceOnUse">
<stop stop-color="#F5841F"/>
<stop offset="0.49" stop-color="#EA1E25"/>
<stop offset="1" stop-color="#B32824"/>
</linearGradient>
<linearGradient id="paint2_linear" x1="409.457" y1="968" x2="567.115" y2="968" gradientUnits="userSpaceOnUse">
<stop stop-color="#B72724"/>
<stop offset="0.49" stop-color="#EA1E25"/>
<stop offset="1" stop-color="#B32824"/>
</linearGradient>
<clipPath id="clip0">
<rect width="42.74" height="44" fill="white"/>
</clipPath>
</defs>
</svg>
