<svg width="44" height="44" viewBox="0 0 44 44" fill="none" xmlns="http://www.w3.org/2000/svg">
<path d="M43.74 41.94L25.1 17.08C24.6381 16.4522 24.0117 15.9643 23.29 15.67V9.48H32.36C32.6196 9.47946 32.8729 9.40062 33.087 9.2538C33.301 9.10698 33.4658 8.899 33.5598 8.65704C33.6538 8.41508 33.6726 8.1504 33.6137 7.89759C33.5549 7.64478 33.4212 7.4156 33.23 7.24L30.73 4.74L33.27 2.2C33.4495 2.01961 33.5717 1.79014 33.6211 1.54047C33.6705 1.29081 33.645 1.0321 33.5477 0.796918C33.4504 0.561734 33.2858 0.360581 33.0744 0.218776C32.8631 0.0769719 32.6145 0.000852933 32.36 0H22C21.6579 0 21.3298 0.13591 21.0878 0.377832C20.8459 0.619754 20.71 0.947871 20.71 1.29V15.67C19.9883 15.9643 19.3619 16.4522 18.9 17.08L0.260004 41.94C0.114562 42.1307 0.026103 42.3587 0.00486633 42.5977C-0.0163704 42.8366 0.0304832 43.0766 0.140004 43.29C0.246362 43.5039 0.41043 43.6837 0.613658 43.8092C0.816886 43.9346 1.05117 44.0007 1.29 44H42.71C42.9488 44.0007 43.1831 43.9346 43.3863 43.8092C43.5896 43.6837 43.7536 43.5039 43.86 43.29C43.9695 43.0766 44.0164 42.8366 43.9951 42.5977C43.9739 42.3587 43.8854 42.1307 43.74 41.94ZM23.29 2.58H29.24L28 3.83C27.7594 4.07174 27.6243 4.39893 27.6243 4.74C27.6243 5.08107 27.7594 5.40826 28 5.65L29.24 6.9H23.29V2.58ZM21 18.63C21.1008 18.4419 21.2508 18.2846 21.434 18.175C21.6171 18.0654 21.8266 18.0075 22.04 18.0075C22.2534 18.0075 22.4629 18.0654 22.646 18.175C22.8292 18.2846 22.9792 18.4419 23.08 18.63L29.21 26.8L26.46 29.8L23 26C22.879 25.8516 22.7265 25.7319 22.5536 25.6497C22.3806 25.5676 22.1915 25.5249 22 25.5249C21.8085 25.5249 21.6194 25.5676 21.4464 25.6497C21.2735 25.7319 21.121 25.8516 21 26L17.54 29.82L14.79 26.82L21 18.63ZM3.87 41.42L13.26 28.9L16.63 32.63C16.7498 32.763 16.8964 32.8692 17.0601 32.9416C17.2238 33.0139 17.401 33.0509 17.58 33.05C17.7672 33.0568 17.9536 33.0227 18.1263 32.9502C18.299 32.8777 18.4538 32.7684 18.58 32.63L22 28.8L25.46 32.63C25.5862 32.7684 25.741 32.8777 25.9137 32.9502C26.0864 33.0227 26.2728 33.0568 26.46 33.05C26.639 33.0509 26.8162 33.0139 26.9799 32.9416C27.1436 32.8692 27.2902 32.763 27.41 32.63L30.78 28.9L40.17 41.42H3.87Z" fill="url(#paint0_linear)"/>
<defs>
<linearGradient id="paint0_linear" x1="4.28696e-06" y1="22" x2="44" y2="22" gradientUnits="userSpaceOnUse">
<stop stop-color="#F5841F"/>
<stop offset="0.49" stop-color="#EA1E25"/>
<stop offset="1" stop-color="#B32824"/>
</linearGradient>
</defs>
</svg>
