<svg width="44" height="44" viewBox="0 0 44 44" fill="none" xmlns="http://www.w3.org/2000/svg">
<g clip-path="url(#clip0)">
<circle cx="22" cy="22" r="19" fill="white"/>
<circle cx="22" cy="22" r="19" fill="white"/>
<path d="M22 0C17.6488 0 13.3953 1.29028 9.77746 3.70767C6.15958 6.12506 3.33979 9.56099 1.67466 13.581C0.00953233 17.6009 -0.426141 22.0244 0.422734 26.292C1.27161 30.5596 3.36691 34.4796 6.44366 37.5564C9.52042 40.6331 13.4404 42.7284 17.708 43.5773C21.9756 44.4261 26.3991 43.9905 30.419 42.3253C34.439 40.6602 37.875 37.8404 40.2923 34.2225C42.7097 30.6047 44 26.3512 44 22C44 16.1652 41.6822 10.5695 37.5564 6.44365C33.4306 2.31785 27.8348 0 22 0V0ZM27.47 22.77H23.89V35.53H18.59V22.77H16.07V18.26H18.59V15.35C18.59 13.26 19.59 10 23.94 10H27.87V14.38H25C24.8405 14.371 24.681 14.3975 24.5329 14.4577C24.3849 14.5178 24.2521 14.61 24.144 14.7276C24.0359 14.8453 23.9553 14.9855 23.9079 15.138C23.8605 15.2906 23.8476 15.4518 23.87 15.61V18.26H27.87L27.47 22.77Z" fill="url(#paint0_linear)"/>
</g>
<defs>
<linearGradient id="paint0_linear" x1="9.89701e-06" y1="22" x2="44" y2="22" gradientUnits="userSpaceOnUse">
<stop stop-color="#F5841F"/>
<stop offset="0.48" stop-color="#EA1E25"/>
<stop offset="1" stop-color="#B32824"/>
</linearGradient>
<clipPath id="clip0">
<rect width="44" height="44" fill="white"/>
</clipPath>
</defs>
</svg>
