<svg width="44" height="44" viewBox="0 0 44 44" fill="none" xmlns="http://www.w3.org/2000/svg">
<g clip-path="url(#clip0)">
<circle cx="22" cy="22" r="19" fill="#E61E25"/>
<path d="M26.21 22C26.21 22.8326 25.9631 23.6466 25.5005 24.3389C25.0379 25.0313 24.3804 25.5709 23.6111 25.8895C22.8419 26.2082 21.9954 26.2915 21.1787 26.1291C20.3621 25.9667 19.6119 25.5657 19.0231 24.9769C18.4343 24.3881 18.0334 23.638 17.8709 22.8213C17.7085 22.0047 17.7919 21.1582 18.1105 20.3889C18.4292 19.6196 18.9688 18.9621 19.6611 18.4995C20.3534 18.0369 21.1674 17.79 22 17.79C22.5533 17.7887 23.1013 17.8967 23.6127 18.1078C24.1241 18.3189 24.5887 18.6289 24.9799 19.0201C25.3711 19.4113 25.6812 19.876 25.8923 20.3873C26.1034 20.8987 26.2114 21.4468 26.21 22Z" fill="white"/>
<path d="M31.8499 14.55C31.6362 14.0066 31.3128 13.513 30.8999 13.1C30.4869 12.6871 29.9934 12.3637 29.4499 12.15C28.6975 11.8711 27.9023 11.7256 27.0999 11.72L27.0499 11.7178C25.7593 11.6595 25.3273 11.64 21.9999 11.64C18.6299 11.64 18.2299 11.64 16.8999 11.72C16.0975 11.7256 15.3023 11.8711 14.5499 12.15C14.0064 12.3637 13.5128 12.6871 13.0999 13.1C12.687 13.513 12.3636 14.0066 12.1499 14.55C11.871 15.3024 11.7255 16.0976 11.7199 16.9L11.7176 16.95C11.6594 18.2406 11.6399 18.6726 11.6399 22C11.6399 25.37 11.6399 25.77 11.7199 27.11C11.7262 27.9091 11.8718 28.7009 12.1499 29.45C12.3636 29.9935 12.687 30.4871 13.0999 30.9C13.5128 31.3129 14.0064 31.6363 14.5499 31.85C15.3023 32.1289 16.0975 32.2744 16.8999 32.28L16.95 32.2823C18.2405 32.3405 18.6725 32.36 21.9999 32.36C25.3699 32.36 25.7699 32.36 27.0999 32.28C27.9023 32.2744 28.6975 32.1289 29.4499 31.85C29.994 31.6374 30.4881 31.3143 30.9012 30.9013C31.3142 30.4882 31.6373 29.9941 31.8499 29.45C32.128 28.7009 32.2735 27.9091 32.2799 27.11L32.2823 27.0558C32.3404 25.7586 32.3599 25.3241 32.3599 22C32.3599 18.63 32.3599 18.23 32.2799 16.9C32.2743 16.0976 32.1288 15.3024 31.8499 14.55ZM21.9999 28.49C20.7163 28.49 19.4615 28.1094 18.3942 27.3963C17.327 26.6831 16.4951 25.6695 16.0039 24.4836C15.5127 23.2977 15.3842 21.9928 15.6346 20.7339C15.885 19.4749 16.5031 18.3185 17.4108 17.4109C18.3184 16.5032 19.4748 15.8851 20.7338 15.6347C21.9927 15.3843 23.2976 15.5128 24.4835 16.004C25.6694 16.4952 26.683 17.3271 27.3961 18.3944C28.1093 19.4616 28.4899 20.7164 28.4899 22C28.4872 23.7205 27.8026 25.3697 26.5861 26.5862C25.3696 27.8028 23.7203 28.4874 21.9999 28.49ZM28.7399 16.77C28.4388 16.77 28.1446 16.6806 27.8944 16.5131C27.6442 16.3457 27.4494 16.1077 27.3347 15.8294C27.2199 15.551 27.1904 15.2449 27.2499 14.9498C27.3093 14.6547 27.4551 14.3838 27.6687 14.1717C27.8823 13.9595 28.154 13.8155 28.4495 13.758C28.745 13.7005 29.051 13.732 29.3285 13.8486C29.6061 13.9652 29.8428 14.1616 30.0086 14.4128C30.1744 14.6641 30.2619 14.959 30.2599 15.26C30.2572 15.6614 30.0959 16.0455 29.8112 16.3284C29.5264 16.6113 29.1413 16.77 28.7399 16.77Z" fill="white"/>
<path d="M31.8499 14.55C31.6362 14.0066 31.3128 13.513 30.8999 13.1C30.4869 12.6871 29.9934 12.3637 29.4499 12.15C28.6975 11.8711 27.9023 11.7256 27.0999 11.72L27.0499 11.7178C25.7593 11.6595 25.3273 11.64 21.9999 11.64C18.6299 11.64 18.2299 11.64 16.8999 11.72C16.0975 11.7256 15.3023 11.8711 14.5499 12.15C14.0064 12.3637 13.5128 12.6871 13.0999 13.1C12.687 13.513 12.3636 14.0066 12.1499 14.55C11.871 15.3024 11.7255 16.0976 11.7199 16.9L11.7176 16.95C11.6594 18.2406 11.6399 18.6726 11.6399 22C11.6399 25.37 11.6399 25.77 11.7199 27.11C11.7262 27.9091 11.8718 28.7009 12.1499 29.45C12.3636 29.9935 12.687 30.4871 13.0999 30.9C13.5128 31.3129 14.0064 31.6363 14.5499 31.85C15.3023 32.1289 16.0975 32.2744 16.8999 32.28L16.95 32.2823C18.2405 32.3405 18.6725 32.36 21.9999 32.36C25.3699 32.36 25.7699 32.36 27.0999 32.28C27.9023 32.2744 28.6975 32.1289 29.4499 31.85C29.994 31.6374 30.4881 31.3143 30.9012 30.9013C31.3142 30.4882 31.6373 29.9941 31.8499 29.45C32.128 28.7009 32.2735 27.9091 32.2799 27.11L32.2823 27.0558C32.3404 25.7586 32.3599 25.3241 32.3599 22C32.3599 18.63 32.3599 18.23 32.2799 16.9C32.2743 16.0976 32.1288 15.3024 31.8499 14.55ZM21.9999 28.49C20.7163 28.49 19.4615 28.1094 18.3942 27.3963C17.327 26.6831 16.4951 25.6695 16.0039 24.4836C15.5127 23.2977 15.3842 21.9928 15.6346 20.7339C15.885 19.4749 16.5031 18.3185 17.4108 17.4109C18.3184 16.5032 19.4748 15.8851 20.7338 15.6347C21.9927 15.3843 23.2976 15.5128 24.4835 16.004C25.6694 16.4952 26.683 17.3271 27.3961 18.3944C28.1093 19.4616 28.4899 20.7164 28.4899 22C28.4872 23.7205 27.8026 25.3697 26.5861 26.5862C25.3696 27.8028 23.7203 28.4874 21.9999 28.49ZM28.7399 16.77C28.4388 16.77 28.1446 16.6806 27.8944 16.5131C27.6442 16.3457 27.4494 16.1077 27.3347 15.8294C27.2199 15.551 27.1904 15.2449 27.2499 14.9498C27.3093 14.6547 27.4551 14.3838 27.6687 14.1717C27.8823 13.9595 28.154 13.8155 28.4495 13.758C28.745 13.7005 29.051 13.732 29.3285 13.8486C29.6061 13.9652 29.8428 14.1616 30.0086 14.4128C30.1744 14.6641 30.2619 14.959 30.2599 15.26C30.2572 15.6614 30.0959 16.0455 29.8112 16.3284C29.5264 16.6113 29.1413 16.77 28.7399 16.77Z" stroke="#EA2224"/>
<path d="M35.06 27.216L35.0661 26.71H35.0549C35.1 25.692 35.1 24.9543 35.1 22.0177V22C35.1 18.5738 35.0901 18.1308 35.0298 16.7736C35.0058 15.673 34.7955 14.5844 34.408 13.554L34.4062 13.5493C34.0555 12.6444 33.5199 11.8226 32.8336 11.1364C32.1474 10.4501 31.3256 9.91455 30.4207 9.5638L30.4207 9.56377L30.416 9.562C29.3862 9.1747 28.2983 8.96449 27.1984 8.94028C25.8413 8.87 25.3925 8.87 21.9875 8.87H21.97C18.5437 8.87 18.1008 8.87994 16.7435 8.94024C15.643 8.96425 14.5544 9.17448 13.524 9.562L13.524 9.56198L13.5193 9.5638C12.6144 9.91455 11.7926 10.4501 11.1064 11.1364C10.4201 11.8226 9.88456 12.6444 9.53381 13.5493L9.53378 13.5493L9.53201 13.554C9.14471 14.5838 8.9345 15.6717 8.91029 16.7716C8.84001 18.1287 8.84001 18.5775 8.84001 21.9825V22C8.84001 25.4263 8.84995 25.8692 8.91025 27.2265C8.93426 28.327 9.14449 29.4156 9.53201 30.446L9.53214 30.4463C9.88042 31.3704 10.4283 32.2061 11.1368 32.8939C11.8166 33.5914 12.6428 34.1292 13.5558 34.4687L13.5586 34.4697C14.5993 34.8494 15.6971 35.049 16.8048 35.0599C18.1594 35.13 18.6101 35.13 22.0123 35.13H22.03C25.4563 35.13 25.8992 35.1201 27.2565 35.0598C28.357 35.0358 29.4456 34.8255 30.476 34.438L30.4807 34.4362C31.3856 34.0855 32.2074 33.5499 32.8936 32.8636C33.5799 32.1774 34.1155 31.3556 34.4662 30.4507L34.4663 30.4507L34.4697 30.4414C34.8471 29.4073 35.0467 28.3168 35.06 27.216ZM10.0553 4.1234C13.5909 1.76095 17.7477 0.5 22 0.5C27.7022 0.5 33.1708 2.76517 37.2028 6.7972C41.2348 10.8292 43.5 16.2978 43.5 22C43.5 26.2523 42.2391 30.4091 39.8766 33.9448C37.5142 37.4804 34.1563 40.2361 30.2277 41.8634C26.2991 43.4907 21.9762 43.9165 17.8056 43.0869C13.635 42.2573 9.80404 40.2096 6.79721 37.2028C3.79039 34.196 1.74271 30.365 0.913126 26.1944C0.0835441 22.0238 0.509316 17.7009 2.1366 13.7723C3.76388 9.84369 6.51959 6.48585 10.0553 4.1234Z" fill="white" stroke="#E41F25"/>
</g>
<defs>
<clipPath id="clip0">
<rect width="44" height="44" fill="white"/>
</clipPath>
</defs>
</svg>
