<svg width="44" height="44" viewBox="0 0 44 44" fill="none" xmlns="http://www.w3.org/2000/svg">
<g clip-path="url(#clip0)">
<circle cx="22" cy="22" r="19" fill="white"/>
<path d="M26.21 22C26.21 22.8326 25.9631 23.6466 25.5005 24.3389C25.0379 25.0313 24.3804 25.5709 23.6111 25.8895C22.8419 26.2082 21.9954 26.2915 21.1787 26.1291C20.3621 25.9667 19.6119 25.5657 19.0231 24.9769C18.4343 24.3881 18.0334 23.638 17.8709 22.8213C17.7085 22.0047 17.7919 21.1582 18.1105 20.3889C18.4292 19.6196 18.9688 18.9621 19.6611 18.4995C20.3534 18.0369 21.1674 17.79 22 17.79C22.5533 17.7887 23.1013 17.8967 23.6127 18.1078C24.1241 18.3189 24.5887 18.6289 24.9799 19.0201C25.3711 19.4113 25.6812 19.876 25.8923 20.3873C26.1034 20.8987 26.2114 21.4468 26.21 22Z" fill="url(#paint0_linear)"/>
<path d="M31.8499 14.55C31.6362 14.0066 31.3128 13.513 30.8999 13.1C30.4869 12.6871 29.9934 12.3637 29.4499 12.15C28.6975 11.8711 27.9023 11.7256 27.0999 11.72C25.7699 11.66 25.3699 11.64 21.9999 11.64C18.6299 11.64 18.2299 11.64 16.8999 11.72C16.0975 11.7256 15.3023 11.8711 14.5499 12.15C14.0064 12.3637 13.5128 12.6871 13.0999 13.1C12.687 13.513 12.3636 14.0066 12.1499 14.55C11.871 15.3024 11.7255 16.0976 11.7199 16.9C11.6599 18.23 11.6399 18.63 11.6399 22C11.6399 25.37 11.6399 25.77 11.7199 27.11C11.7262 27.9091 11.8718 28.7009 12.1499 29.45C12.3636 29.9935 12.687 30.4871 13.0999 30.9C13.5128 31.3129 14.0064 31.6363 14.5499 31.85C15.3023 32.1289 16.0975 32.2744 16.8999 32.28C18.2299 32.34 18.6299 32.36 21.9999 32.36C25.3699 32.36 25.7699 32.36 27.0999 32.28C27.9023 32.2744 28.6975 32.1289 29.4499 31.85C29.994 31.6374 30.4881 31.3143 30.9012 30.9013C31.3142 30.4882 31.6373 29.9941 31.8499 29.45C32.128 28.7009 32.2735 27.9091 32.2799 27.11C32.3399 25.77 32.3599 25.37 32.3599 22C32.3599 18.63 32.3599 18.23 32.2799 16.9C32.2743 16.0976 32.1288 15.3024 31.8499 14.55ZM21.9999 28.49C20.7163 28.49 19.4615 28.1094 18.3942 27.3963C17.327 26.6831 16.4951 25.6695 16.0039 24.4836C15.5127 23.2977 15.3842 21.9928 15.6346 20.7339C15.885 19.4749 16.5031 18.3185 17.4108 17.4109C18.3184 16.5032 19.4748 15.8851 20.7338 15.6347C21.9927 15.3843 23.2976 15.5128 24.4835 16.004C25.6694 16.4952 26.683 17.3271 27.3961 18.3944C28.1093 19.4616 28.4899 20.7164 28.4899 22C28.4872 23.7205 27.8026 25.3697 26.5861 26.5862C25.3696 27.8028 23.7203 28.4874 21.9999 28.49ZM28.7399 16.77C28.4388 16.77 28.1446 16.6806 27.8944 16.5131C27.6442 16.3457 27.4494 16.1077 27.3347 15.8294C27.2199 15.551 27.1904 15.2449 27.2499 14.9498C27.3093 14.6547 27.4551 14.3838 27.6687 14.1717C27.8823 13.9595 28.154 13.8155 28.4495 13.758C28.745 13.7005 29.051 13.732 29.3285 13.8486C29.6061 13.9652 29.8428 14.1616 30.0086 14.4128C30.1744 14.6641 30.2619 14.959 30.2599 15.26C30.2572 15.6614 30.0959 16.0455 29.8112 16.3284C29.5264 16.6113 29.1413 16.77 28.7399 16.77Z" fill="url(#paint1_linear)"/>
<path d="M22 0C17.6488 0 13.3953 1.29028 9.77746 3.70767C6.15958 6.12506 3.33979 9.56099 1.67466 13.581C0.00953233 17.6009 -0.426141 22.0244 0.422734 26.292C1.27161 30.5596 3.36691 34.4796 6.44366 37.5564C9.52042 40.6331 13.4404 42.7284 17.708 43.5773C21.9756 44.4261 26.3991 43.9905 30.419 42.3253C34.439 40.6602 37.875 37.8404 40.2923 34.2225C42.7097 30.6047 44 26.3512 44 22C44 16.1652 41.6822 10.5695 37.5564 6.44365C33.4306 2.31785 27.8348 0 22 0V0ZM34.56 27.21C34.5474 28.2543 34.3581 29.2889 34 30.27C33.6744 31.1101 33.1772 31.873 32.5401 32.5101C31.903 33.1471 31.1401 33.6444 30.3 33.97C29.3207 34.3383 28.286 34.5378 27.24 34.56C25.89 34.62 25.46 34.63 22.03 34.63C18.6 34.63 18.17 34.63 16.82 34.56C15.7656 34.5508 14.7206 34.3614 13.73 34C12.8843 33.6856 12.1191 33.1869 11.49 32.54C10.832 31.9025 10.3231 31.1273 10 30.27C9.6317 29.2907 9.4322 28.256 9.41001 27.21C9.35001 25.86 9.34001 25.43 9.34001 22C9.34001 18.57 9.34001 18.14 9.41001 16.79C9.4322 15.744 9.6317 14.7093 10 13.73C10.3256 12.8899 10.8229 12.127 11.4599 11.4899C12.097 10.8528 12.8599 10.3556 13.7 10.03C14.6793 9.66169 15.714 9.46219 16.76 9.44C18.11 9.38 18.54 9.37 21.97 9.37C25.4 9.37 25.83 9.37 27.18 9.44C28.226 9.46219 29.2607 9.66169 30.24 10.03C31.0801 10.3556 31.843 10.8528 32.4801 11.4899C33.1172 12.127 33.6144 12.8899 33.94 13.73C34.3083 14.7093 34.5078 15.744 34.53 16.79C34.59 18.14 34.6 18.57 34.6 22C34.6 25.43 34.6 25.86 34.53 27.21H34.56Z" fill="url(#paint2_linear)"/>
</g>
<defs>
<linearGradient id="paint0_linear" x1="-0.149958" y1="22" x2="44.36" y2="22" gradientUnits="userSpaceOnUse">
<stop stop-color="#F5841F"/>
<stop offset="0.48" stop-color="#EA1E25"/>
<stop offset="1" stop-color="#B32824"/>
</linearGradient>
<linearGradient id="paint1_linear" x1="8.53189" y1="467.48" x2="930.779" y2="467.48" gradientUnits="userSpaceOnUse">
<stop stop-color="#E81E25"/>
<stop offset="0.48" stop-color="#EA1E25"/>
<stop offset="1" stop-color="#B32824"/>
</linearGradient>
<linearGradient id="paint2_linear" x1="-0.14999" y1="22" x2="44.36" y2="22" gradientUnits="userSpaceOnUse">
<stop stop-color="#F5841F"/>
<stop offset="0.48" stop-color="#EA1E25"/>
<stop offset="1" stop-color="#B32824"/>
</linearGradient>
<clipPath id="clip0">
<rect width="44" height="44" fill="white"/>
</clipPath>
</defs>
</svg>
