<svg width="149" height="43" viewBox="0 0 149 43" fill="none" xmlns="http://www.w3.org/2000/svg">
<path fill-rule="evenodd" clip-rule="evenodd" d="M15.7124 21.324L20.3327 22.2237C19.6044 24.7468 18.159 27.0055 16.1712 28.7266C14.3922 30.1839 12.1429 30.9468 9.84198 30.8732C8.62958 30.8955 7.42826 30.6395 6.33082 30.125C5.23338 29.6105 4.2692 28.8512 3.51273 27.9059C1.83612 25.4984 1.0375 22.5904 1.25003 19.6667C1.27042 16.9518 1.83532 14.2685 2.91146 11.7748C3.82335 9.58092 5.33701 7.68807 7.27864 6.31358C9.02965 5.07705 11.1305 4.43011 13.2756 4.46687C14.3539 4.44496 15.4255 4.64059 16.4261 5.04201C17.4267 5.44343 18.3357 6.04236 19.0985 6.80287C20.6351 8.48707 21.5358 10.6524 21.646 12.927L17.2314 13.3216C17.1234 12.1105 16.63 10.9657 15.8231 10.0543C15.0928 9.36521 14.1226 8.98603 13.1174 8.99683C11.7981 8.97892 10.5149 9.42609 9.49387 10.2595C8.23033 11.3433 7.29813 12.76 6.80394 14.3476C6.11826 16.1378 5.75404 18.0345 5.72797 19.9508C5.59842 21.6201 6.02686 23.2852 6.94635 24.686C7.29412 25.2099 7.76325 25.6427 8.31408 25.9476C8.8649 26.2526 9.48124 26.4208 10.111 26.438C11.3353 26.488 12.5316 26.0638 13.4497 25.2542C14.5678 24.189 15.3536 22.8242 15.7124 21.324Z" fill="#2B2A29" stroke="#C6C7C7" stroke-width="0.52" stroke-miterlimit="22.93"/>
<path fill-rule="evenodd" clip-rule="evenodd" d="M27.5164 19.2404L23.8138 18.7985C24.188 17.4698 24.9883 16.3 26.0924 15.4681C27.3278 14.629 28.8102 14.2287 30.3013 14.3317C31.7635 14.2515 33.2011 14.7314 34.3204 15.6733C34.7407 16.0813 35.0695 16.5737 35.285 17.1178C35.5005 17.662 35.5978 18.2456 35.5704 18.83C35.5616 19.3589 35.514 19.8865 35.428 20.4084C35.3489 20.9609 35.0641 22.3972 34.5735 24.7332C34.2624 26.062 34.0561 27.413 33.9564 28.7739C33.9678 29.55 34.0633 30.3227 34.2413 31.0783L30.5386 30.9994C30.3979 30.3982 30.3132 29.7852 30.2855 29.1685C29.7559 29.8259 29.0925 30.3639 28.3392 30.7468C27.6588 31.0946 26.9043 31.2733 26.1398 31.2677C25.5868 31.2722 25.0399 31.1508 24.5409 30.9129C24.0419 30.6749 23.6039 30.3266 23.26 29.8945C22.4695 28.9093 22.0747 27.6659 22.1524 26.4063C22.1055 25.0584 22.5751 23.7434 23.4657 22.7287C24.7199 21.6616 26.3277 21.0989 27.9753 21.1503C29.2054 21.1037 30.4263 20.9184 31.6146 20.5978C31.7606 20.1205 31.8508 19.6279 31.8836 19.1299C31.8868 18.9111 31.8464 18.6939 31.765 18.4907C31.6835 18.2875 31.5625 18.1024 31.4089 17.9462C31.0069 17.5987 30.484 17.4229 29.9532 17.4569C29.3942 17.3907 28.8309 17.5377 28.376 17.8685C27.9212 18.1993 27.6085 18.6893 27.5006 19.2404H27.5164ZM31.0925 23.3758C30.7909 23.4545 30.4842 23.5125 30.1747 23.5494C28.8461 23.581 27.5484 23.9563 26.4088 24.6385C26.1982 24.8163 26.0305 25.0392 25.9182 25.2907C25.8059 25.5421 25.7518 25.8155 25.7601 26.0906C25.7422 26.5646 25.9063 27.0275 26.2189 27.3849C26.3726 27.5643 26.5647 27.7071 26.781 27.8027C26.9974 27.8983 27.2325 27.9443 27.469 27.9373C28.0425 27.9402 28.6061 27.7875 29.0994 27.4956C29.5927 27.2037 29.9972 26.7835 30.2697 26.28C30.6048 25.5344 30.844 24.7495 30.9817 23.944L31.0925 23.3758Z" fill="#2B2A29" stroke="#C6C7C7" stroke-width="0.52" stroke-miterlimit="22.93"/>
<path fill-rule="evenodd" clip-rule="evenodd" d="M42.8015 14.9788H46.3617L45.7446 18.1356C47.1054 15.8153 48.5612 14.6789 50.1118 14.7105C50.7283 14.7426 51.3292 14.9154 51.8682 15.2156L50.2859 18.7669C49.9389 18.624 49.5692 18.5439 49.1941 18.5302C48.4454 18.546 47.7293 18.8385 47.1845 19.3509C46.4747 19.9517 45.9301 20.7231 45.6022 21.5922C45.0645 23.0453 44.6671 24.5464 44.4155 26.0748L43.4028 31.1415L39.5578 31.0941L42.8015 14.9788Z" fill="#2B2A29" stroke="#C6C7C7" stroke-width="0.52" stroke-miterlimit="22.93"/>
<path fill-rule="evenodd" clip-rule="evenodd" d="M53.0233 31.3625L57.4221 9.12305H61.2355L59.7639 16.5572C60.3454 16.0618 61.0024 15.6622 61.7102 15.3734C62.342 15.1161 63.022 14.9976 63.7039 15.0262C64.3946 15.0192 65.0769 15.1774 65.6936 15.4878C66.3104 15.7981 66.8435 16.2515 67.2483 16.8098C68.2137 18.2978 68.6588 20.0625 68.5141 21.829C68.4978 23.2816 68.2631 24.7234 67.8179 26.1065C67.4633 27.3249 66.8719 28.4619 66.0774 29.4526C65.4661 30.2264 64.7012 30.8659 63.8305 31.3309C63.0818 31.7307 62.2427 31.9318 61.3937 31.9149C60.4225 31.9025 59.4784 31.5931 58.689 31.0286C57.8996 30.4641 57.3028 29.6717 56.9791 28.7581L56.4569 31.4256L52.9916 31.3467L53.0233 31.3625ZM58.2607 24.8753C58.205 25.8245 58.4727 26.7646 59.0202 27.5428C59.2278 27.8551 59.5067 28.1139 59.8341 28.2977C60.1614 28.4815 60.5278 28.5853 60.9032 28.6003C61.5905 28.5955 62.2489 28.3237 62.7387 27.8427C63.4364 27.149 63.9479 26.2914 64.2261 25.3488C64.6135 24.2249 64.8269 23.0487 64.859 21.8606C64.9238 20.8931 64.662 19.9318 64.1153 19.13C63.9068 18.8258 63.6288 18.5756 63.3041 18.3999C62.9794 18.2242 62.6174 18.1282 62.2482 18.1198C61.7419 18.1279 61.2464 18.2675 60.8108 18.525C60.3751 18.7824 60.0143 19.1487 59.7639 19.5877C58.7308 21.1547 58.206 23.0007 58.2607 24.8753Z" fill="#2B2A29" stroke="#C6C7C7" stroke-width="0.52" stroke-miterlimit="22.93"/>
<path fill-rule="evenodd" clip-rule="evenodd" d="M73.1187 25.0647C73.0316 22.4907 73.8487 19.9673 75.4288 17.9304C76.1382 17.0806 77.0372 16.4081 78.0538 15.9669C79.0704 15.5256 80.1764 15.3278 81.2834 15.3893C82.1937 15.354 83.1004 15.5212 83.9379 15.8789C84.7754 16.2365 85.5225 16.7755 86.1253 17.4569C87.3341 18.9692 87.9324 20.8778 87.8025 22.8077C87.808 25.2563 86.9763 27.6337 85.4449 29.5474C84.3421 30.9349 82.7727 31.8769 81.0272 32.199C79.2818 32.5211 77.4784 32.2015 75.951 31.2994C74.9397 30.6776 74.1485 29.756 73.6883 28.6635C73.2076 27.5253 72.9705 26.2996 72.9921 25.0647H73.1187ZM84.0366 22.0974C84.0895 21.1975 83.8204 20.3081 83.2771 19.5878C83.0364 19.2817 82.7288 19.0345 82.3778 18.8649C82.0269 18.6953 81.6417 18.6078 81.2517 18.6092C80.438 18.5955 79.6504 18.8951 79.0523 19.4457C78.3148 20.1762 77.7898 21.0927 77.5333 22.0974C77.19 23.0836 76.9979 24.116 76.9637 25.1594C76.8944 26.1419 77.1684 27.1179 77.739 27.9216C77.9739 28.2484 78.2824 28.5158 78.6396 28.7022C78.9968 28.8886 79.3929 28.9888 79.796 28.9949C80.3285 28.9907 80.8512 28.8525 81.3159 28.5931C81.7806 28.3338 82.1721 27.9617 82.4543 27.5112C83.5447 25.92 84.0989 24.0238 84.0366 22.0974Z" fill="#2B2A29" stroke="#C6C7C7" stroke-width="0.52" stroke-miterlimit="22.93"/>
<path fill-rule="evenodd" clip-rule="evenodd" d="M146.554 40.454L144.291 38.4968L94.5748 37.2657L100.904 4.46686L97.1065 4.38794L90.7772 37.1868C90.7772 37.1868 90.2709 39.7437 90.0019 40.9591C112.154 40.312 139.338 41.1012 144.228 42.2849C146.206 40.7066 144.354 42.1429 144.228 42.2849L146.554 40.454Z" fill="#2B2A29"/>
<path fill-rule="evenodd" clip-rule="evenodd" d="M105.255 16.2573H109.069L105.904 32.3726H102.091L105.255 16.2573ZM106.474 10.1332H110.287L109.496 14.2054H105.698L106.474 10.1332Z" fill="#2B2A29" stroke="#C6C7C7" stroke-width="0.52" stroke-miterlimit="22.93"/>
<path fill-rule="evenodd" clip-rule="evenodd" d="M115.588 16.4625L119.211 16.5414L118.8 18.6407C119.545 17.8827 120.411 17.2533 121.363 16.7782C122.141 16.4177 122.99 16.2396 123.848 16.2573C124.362 16.2453 124.872 16.3466 125.343 16.5539C125.813 16.7613 126.232 17.0696 126.569 17.4569C127.263 18.3216 127.607 19.4138 127.534 20.5189C127.444 21.5813 127.28 22.636 127.044 23.6757L125.24 32.7988H121.442L123.246 23.6757C123.515 22.3183 123.642 21.4975 123.658 21.245C123.685 20.7681 123.539 20.2975 123.246 19.9192C123.093 19.7545 122.907 19.6243 122.7 19.5372C122.492 19.4501 122.269 19.4081 122.044 19.4141C121.353 19.4485 120.695 19.7156 120.177 20.1717C119.49 20.7365 118.948 21.456 118.594 22.271C118.135 23.5144 117.796 24.7987 117.582 26.1064L116.284 32.7199L112.344 32.5778L115.588 16.4625Z" fill="#2B2A29" stroke="#C6C7C7" stroke-width="0.52" stroke-miterlimit="22.93"/>
<path fill-rule="evenodd" clip-rule="evenodd" d="M145.573 26.5326L136.079 26.3274C136.079 26.501 136.079 26.6431 136.079 26.7378C136.023 27.6723 136.291 28.5976 136.838 29.3579C137.064 29.6649 137.356 29.9167 137.693 30.0945C138.03 30.2722 138.403 30.3711 138.785 30.3838C139.448 30.3673 140.091 30.1481 140.626 29.7558C141.16 29.3635 141.562 28.8169 141.775 28.1899L145.193 28.9159C144.612 30.3166 143.647 31.5256 142.408 32.4042C141.306 33.1581 139.994 33.5448 138.658 33.509C137.777 33.5152 136.906 33.3241 136.109 32.9499C135.312 32.5757 134.61 32.0278 134.053 31.3467C132.843 29.7797 132.241 27.8287 132.36 25.8539C132.357 23.7715 132.944 21.7306 134.053 19.9665C134.701 18.8832 135.633 17.9963 136.748 17.4012C137.863 16.8062 139.12 16.5253 140.383 16.5888C141.165 16.5775 141.94 16.7453 142.648 17.0791C143.356 17.4128 143.977 17.9038 144.465 18.5144C145.506 20.025 145.987 21.8498 145.826 23.6757C145.816 24.6301 145.715 25.5814 145.525 26.5168L145.573 26.5326ZM142.408 23.802C142.408 23.6126 142.408 23.4547 142.408 23.36C142.488 22.4071 142.255 21.4542 141.744 20.6452C141.528 20.3538 141.247 20.1174 140.922 19.9555C140.598 19.7936 140.239 19.7108 139.876 19.714C139.47 19.7108 139.068 19.7968 138.699 19.9659C138.33 20.1351 138.003 20.3831 137.74 20.6926C137.004 21.5325 136.53 22.5698 136.379 23.6757L142.408 23.802Z" fill="#2B2A29" stroke="#C6C7C7" stroke-width="0.52" stroke-miterlimit="22.93"/>
<path fill-rule="evenodd" clip-rule="evenodd" d="M15.4592 20.882L20.0796 21.6712C19.3892 24.2152 17.9772 26.5061 16.013 28.2689C14.2521 29.7717 12.0009 30.5801 9.6838 30.5417C8.48186 30.5895 7.28514 30.3593 6.18717 29.8691C5.0892 29.379 4.11974 28.6422 3.35455 27.7164C1.66348 25.3259 0.847829 22.428 1.04438 19.5088C1.02395 16.7672 1.56228 14.05 2.62669 11.5222C3.50577 9.31466 4.98542 7.39588 6.89893 5.98207C8.60716 4.76011 10.6515 4.09321 12.7535 4.07223C13.8336 4.0259 14.9117 4.20089 15.9214 4.58637C16.931 4.97186 17.8508 5.55968 18.6239 6.31353C20.1837 7.96487 21.1132 10.1098 21.2505 12.3745L16.8517 12.8638C16.7426 11.6624 16.2488 10.528 15.4434 9.62814C15.0726 9.27858 14.6347 9.00749 14.1561 8.83117C13.6775 8.65486 13.1681 8.57697 12.6585 8.60219C11.3532 8.6168 10.0939 9.08575 9.09834 9.92803C7.85903 11.0464 6.9506 12.4821 6.4717 14.0792C5.83211 15.8898 5.50053 17.7943 5.49067 19.714C5.38571 21.3899 5.83606 23.0537 6.77234 24.4492C7.12607 24.9613 7.59843 25.3809 8.14934 25.6721C8.70026 25.9634 9.31347 26.1178 9.93697 26.1222C11.1576 26.1094 12.3279 25.6356 13.2124 24.7964C14.3158 23.7286 15.0946 22.3718 15.4592 20.882Z" fill="#979898" stroke="#2B2A29" stroke-width="0.52" stroke-miterlimit="22.93"/>
<path fill-rule="evenodd" clip-rule="evenodd" d="M27.2316 18.5618L23.5132 18.1829C23.8612 16.8456 24.6394 15.659 25.7284 14.8052C26.9582 13.9471 28.4383 13.5197 29.9374 13.5898C31.3888 13.4668 32.831 13.9143 33.9564 14.8368C34.3782 15.2303 34.7128 15.7073 34.939 16.2373C35.1652 16.7673 35.2778 17.3386 35.2698 17.9146C35.2666 18.4431 35.2243 18.9707 35.1432 19.493C35.1432 20.0454 34.8109 21.4976 34.352 23.8336C34.0615 25.1639 33.8763 26.5149 33.7982 27.8742C33.8116 28.6522 33.9179 29.4258 34.1147 30.1787H30.4121C30.265 29.5781 30.1749 28.9651 30.1431 28.3477C29.6157 29.0011 28.9584 29.5385 28.2127 29.9261C27.5364 30.2903 26.7817 30.4853 26.0132 30.4943C25.4632 30.5053 24.9176 30.3934 24.4166 30.1667C23.9155 29.94 23.4717 29.6043 23.1176 29.1843C22.3341 28.2304 21.9287 27.0229 21.9783 25.7908C21.9193 24.4473 22.365 23.1302 23.2284 22.0973C24.4859 21.0469 26.0822 20.4862 27.7221 20.519C28.9545 20.4502 30.1752 20.2437 31.3615 19.9034C31.4983 19.4251 31.5779 18.9324 31.5988 18.4355C31.6023 18.2176 31.5605 18.0013 31.4761 17.8003C31.3917 17.5992 31.2665 17.4178 31.1083 17.2675C30.6982 16.9248 30.1703 16.7549 29.6367 16.794C29.0709 16.7696 28.5134 16.9365 28.0544 17.2675C27.6463 17.6258 27.3682 18.1085 27.2633 18.6407L27.2316 18.5618ZM30.8551 22.6024C30.5547 22.6934 30.248 22.762 29.9374 22.8076C28.6108 22.8748 27.3219 23.2708 26.1873 23.9598C25.9817 24.1469 25.8199 24.3768 25.7133 24.6332C25.6066 24.8896 25.5578 25.1662 25.5702 25.4435C25.5575 25.9147 25.7276 26.3727 26.0449 26.722C26.2018 26.9007 26.3971 27.0418 26.6163 27.1347C26.8355 27.2276 27.0729 27.27 27.3107 27.2587C27.8724 27.2386 28.4185 27.0697 28.893 26.7694C29.3812 26.4739 29.7761 26.0472 30.0323 25.5382C30.3571 24.787 30.5806 23.9962 30.6969 23.1864L30.8551 22.6024Z" fill="#979898" stroke="#2B2A29" stroke-width="0.52" stroke-miterlimit="22.93"/>
<path fill-rule="evenodd" clip-rule="evenodd" d="M42.4376 13.9686H45.9978L45.4282 17.1254C46.7573 14.7736 48.1814 13.6056 49.7321 13.6056C50.3517 13.6233 50.9587 13.7855 51.5042 14.0791L50.0485 17.662C49.6976 17.5162 49.3211 17.4411 48.9409 17.4411C48.1964 17.482 47.4904 17.7839 46.9472 18.2934C46.2386 18.908 45.6947 19.6892 45.3649 20.5663C44.8804 22.0373 44.5257 23.5478 44.3047 25.0804L43.3712 30.1471H39.5578L42.4376 13.9686Z" fill="#979898" stroke="#2B2A29" stroke-width="0.52" stroke-miterlimit="22.93"/>
<path fill-rule="evenodd" clip-rule="evenodd" d="M52.8967 30.1471L56.9633 7.89185H60.7925L59.4159 15.3576C60.0005 14.8255 60.6619 14.3839 61.3779 14.0475C62.0103 13.7892 62.6883 13.6604 63.3716 13.6687C64.052 13.637 64.7301 13.768 65.3494 14.0508C65.9687 14.3336 66.5113 14.76 66.9318 15.2945C67.9261 16.7664 68.3994 18.5273 68.2768 20.2979C68.2817 21.7473 68.0684 23.1892 67.6439 24.5754C67.3058 25.8025 66.7366 26.9542 65.9666 27.9689C65.3552 28.7431 64.6039 29.3963 63.7514 29.8945C63.0064 30.3088 62.1676 30.5262 61.3146 30.5259C60.3485 30.5314 59.4036 30.2428 58.6063 29.6984C57.8089 29.1541 57.1971 28.38 56.8525 27.4796L56.362 30.1471H52.8967ZM58.0392 23.5494C57.9958 24.4994 58.2807 25.4355 58.8462 26.2011C59.0563 26.5085 59.3366 26.7618 59.6639 26.9401C59.9913 27.1185 60.3563 27.2168 60.7292 27.2271C61.4192 27.2057 62.0753 26.9236 62.5647 26.4379C63.2476 25.7224 63.7423 24.8493 64.0046 23.8967C64.3935 22.7692 64.5913 21.585 64.59 20.3926C64.6397 19.432 64.3668 18.4822 63.8147 17.6936C63.6012 17.3931 63.3191 17.1477 62.9917 16.9775C62.6642 16.8073 62.3009 16.7174 61.9317 16.715C61.4179 16.74 60.9196 16.8988 60.4865 17.1758C60.0533 17.4527 59.7006 17.8381 59.4633 18.2934C58.4716 19.8636 57.9755 21.6947 58.0392 23.5494Z" fill="#979898" stroke="#2B2A29" stroke-width="0.52" stroke-miterlimit="22.93"/>
<path fill-rule="evenodd" clip-rule="evenodd" d="M72.8972 23.4232C72.7674 20.849 73.5518 18.3116 75.1124 16.2574C75.8074 15.3948 76.6936 14.7049 77.7013 14.242C78.709 13.7791 79.8106 13.5559 80.9195 13.5899C81.8272 13.5414 82.7345 13.6931 83.5769 14.0341C84.4192 14.3751 85.1759 14.897 85.793 15.5629C87.0257 17.0477 87.6528 18.9411 87.5494 20.8662C87.6292 23.3047 86.8884 25.6996 85.4449 27.6691C84.7724 28.5848 83.8865 29.3235 82.8637 29.8213C81.8409 30.319 80.712 30.5609 79.5745 30.5259C78.3044 30.5668 77.0485 30.2495 75.951 29.6105C74.9299 29.0128 74.1262 28.1061 73.6567 27.0219C73.1478 25.8905 72.8888 24.6632 72.8972 23.4232ZM83.7676 20.2664C83.8134 19.3673 83.5325 18.4818 82.9765 17.7726C82.7333 17.4675 82.4223 17.223 82.068 17.0586C81.7137 16.8943 81.3259 16.8145 80.9353 16.8256C80.1205 16.8288 79.3384 17.1454 78.7517 17.7095C78.0378 18.4092 77.5243 19.2865 77.2643 20.2507C76.9141 21.2667 76.7324 22.333 76.7264 23.4074C76.6734 24.3781 76.9585 25.3372 77.5333 26.1223C77.774 26.4434 78.087 26.7036 78.4471 26.8818C78.8072 27.06 79.2042 27.1513 79.6062 27.1482C80.1422 27.1287 80.6645 26.9737 81.1239 26.6976C81.5834 26.4215 81.965 26.0334 82.2328 25.5698C83.2765 24.018 83.8126 22.1819 83.7676 20.3138V20.2664Z" fill="#979898" stroke="#2B2A29" stroke-width="0.52" stroke-miterlimit="22.93"/>
<path fill-rule="evenodd" clip-rule="evenodd" d="M104.907 13.9686H108.721L105.778 30.1471H101.964L104.907 13.9686ZM106.015 7.89185H109.812L109.18 11.7747H105.303L106.015 7.89185Z" fill="#979898" stroke="#2B2A29" stroke-width="0.52" stroke-miterlimit="22.93"/>
<path fill-rule="evenodd" clip-rule="evenodd" d="M115.24 13.9687H118.847L118.483 16.068C119.223 15.317 120.078 14.6883 121.015 14.2055C121.76 13.8214 122.582 13.6109 123.42 13.5899C123.935 13.5654 124.448 13.6545 124.924 13.851C125.4 14.0474 125.827 14.3464 126.174 14.7264C126.866 15.5812 127.22 16.6591 127.17 17.7569C127.107 18.8453 126.959 19.9271 126.727 20.9925L125.145 30.1472H121.316L122.993 20.961C123.18 20.1537 123.322 19.337 123.42 18.5145C123.452 18.0317 123.293 17.5556 122.977 17.1886C122.822 17.0297 122.634 16.9054 122.427 16.8238C122.219 16.7422 121.997 16.7051 121.775 16.7151C121.086 16.7746 120.436 17.0573 119.923 17.5201C119.23 18.0917 118.687 18.823 118.341 19.6509C117.895 20.8995 117.577 22.1898 117.392 23.5022L116.189 30.1472H112.344L115.24 13.9687Z" fill="#979898" stroke="#2B2A29" stroke-width="0.52" stroke-miterlimit="22.93"/>
<path fill-rule="evenodd" clip-rule="evenodd" d="M145.304 23.4075H135.81C135.81 23.5811 135.81 23.7231 135.81 23.8178C135.766 24.7533 136.051 25.6747 136.617 26.4222C136.846 26.7251 137.143 26.9711 137.483 27.1408C137.823 27.3106 138.198 27.3996 138.579 27.4008C139.244 27.3711 139.884 27.1389 140.413 26.7354C140.942 26.3318 141.335 25.7764 141.538 25.1437L144.956 25.8066C144.421 27.2156 143.493 28.4424 142.282 29.3422C141.194 30.1209 139.886 30.5353 138.547 30.526C137.653 30.5619 136.763 30.3894 135.947 30.0223C135.131 29.6551 134.413 29.1034 133.848 28.4109C132.6 26.8712 131.964 24.9273 132.06 22.9497C132.014 20.872 132.563 18.8244 133.642 17.0466C134.272 15.9386 135.196 15.0253 136.313 14.4072C137.43 13.789 138.695 13.4898 139.971 13.5426C140.74 13.5341 141.5 13.6986 142.196 14.0238C142.892 14.349 143.505 14.8265 143.99 15.4208C145.095 16.8854 145.655 18.6879 145.573 20.519C145.588 21.473 145.498 22.4258 145.304 23.3601V23.4075ZM142.139 20.7558C142.139 20.5506 142.139 20.4085 142.139 20.3138C142.205 19.3628 141.961 18.416 141.443 17.6148C141.221 17.3247 140.933 17.0918 140.603 16.9353C140.273 16.7788 139.91 16.7033 139.544 16.7151C139.139 16.7233 138.74 16.8177 138.375 16.9919C138.009 17.1661 137.685 17.4161 137.424 17.7253C136.724 18.5962 136.285 19.6468 136.158 20.7558H142.139Z" fill="#979898" stroke="#2B2A29" stroke-width="0.52" stroke-miterlimit="22.93"/>
<path fill-rule="evenodd" clip-rule="evenodd" d="M14.9212 20.7715L19.5574 21.4817C18.8999 24.0399 17.5217 26.3568 15.5858 28.1583C13.8433 29.7068 11.5902 30.5609 9.25655 30.5575C8.04716 30.6473 6.8336 30.451 5.71456 29.9848C4.59552 29.5185 3.6026 28.7954 2.81654 27.8742C1.10235 25.5088 0.25341 22.6284 0.411428 19.714C0.341767 16.973 0.826085 14.246 1.83551 11.6958C2.67834 9.46382 4.13764 7.51563 6.04446 6.07671C7.75595 4.78571 9.83281 4.06752 11.9781 4.02482C13.0519 3.95966 14.1277 4.11362 15.1397 4.47728C16.1518 4.84093 17.0789 5.40665 17.8643 6.13985C19.4556 7.75249 20.4155 9.88018 20.5701 12.1377L16.1871 12.7217C16.0442 11.5436 15.5351 10.4398 14.7313 9.56494C14.3522 9.22751 13.9088 8.96974 13.4277 8.80703C12.9465 8.64432 12.4373 8.58 11.9307 8.61791C10.6278 8.6548 9.37913 9.14632 8.4021 10.0069C7.17927 11.1466 6.29275 12.5986 5.83876 14.2054C5.21872 16.0242 4.91372 17.9351 4.93684 19.856C4.84534 21.5419 5.3246 23.2096 6.29763 24.5912C6.65897 25.0887 7.13531 25.492 7.68623 25.7668C8.23715 26.0416 8.84639 26.1797 9.46225 26.1695C10.6823 26.1397 11.8439 25.6423 12.706 24.7806C13.8142 23.6835 14.5831 22.2919 14.9212 20.7715Z" fill="#F6F6F6" stroke="#2B2A29" stroke-width="0.52" stroke-miterlimit="22.93"/>
<path fill-rule="evenodd" clip-rule="evenodd" d="M26.662 18.2145L22.9277 17.9304C23.2716 16.5816 24.0363 15.3767 25.1113 14.4895C26.3219 13.6091 27.791 13.1539 29.2886 13.1952C30.7403 13.0383 32.1955 13.4579 33.3393 14.3633C33.7585 14.7438 34.0944 15.2065 34.3258 15.7226C34.5572 16.2387 34.6793 16.7969 34.6843 17.3622C34.6829 17.8897 34.6512 18.4167 34.5894 18.9406C34.5894 19.4772 34.2887 20.9293 33.8615 23.2811C33.5902 24.6181 33.4262 25.9746 33.371 27.3376C33.3886 28.1121 33.5056 28.8813 33.7191 29.6262L30.064 29.7367C29.8986 29.1442 29.7978 28.5356 29.7633 27.9216C29.2528 28.6098 28.5999 29.1805 27.8487 29.5947C27.1829 29.9765 26.4328 30.188 25.6651 30.2102C25.1156 30.234 24.5678 30.1326 24.0634 29.9139C23.5589 29.6951 23.1111 29.3646 22.7537 28.9475C21.9484 28.0156 21.5247 26.8152 21.5669 25.5856C21.4771 24.2364 21.9073 22.9039 22.7695 21.8606C23.9841 20.7473 25.5665 20.1182 27.2158 20.0928C28.452 20.0043 29.6735 19.7712 30.8551 19.3983C30.9807 18.9182 31.055 18.4261 31.0766 17.9304C31.0761 17.7101 31.0294 17.4924 30.9395 17.2913C30.8495 17.0901 30.7184 16.91 30.5545 16.7624C30.1445 16.4334 29.623 16.2751 29.0987 16.3204C28.5275 16.311 27.9698 16.4946 27.5164 16.8413C27.1032 17.193 26.8284 17.6796 26.7411 18.2145H26.662ZM30.3488 22.192C30.047 22.282 29.7407 22.3558 29.431 22.413C28.1022 22.5033 26.8178 22.9268 25.6968 23.6441C25.3286 24.0045 25.1135 24.4921 25.0958 25.0063C25.0781 25.5205 25.2593 26.0217 25.6018 26.4063C25.7617 26.5793 25.9584 26.7144 26.1774 26.8018C26.3964 26.8892 26.6323 26.9267 26.8677 26.9114C27.4398 26.8841 27.9945 26.7061 28.4753 26.3956C28.9561 26.0851 29.3459 25.6531 29.6051 25.1436C29.9258 24.3878 30.1389 23.5908 30.238 22.776L30.3488 22.192Z" fill="#F6F6F6" stroke="#2B2A29" stroke-width="0.52" stroke-miterlimit="22.93"/>
<path fill-rule="evenodd" clip-rule="evenodd" d="M41.7889 13.3215H45.3491L44.827 16.4783C46.1244 14.0949 47.5485 12.8953 49.0992 12.8638C49.7164 12.8711 50.3233 13.0225 50.8714 13.3057L49.4631 16.9044C49.1077 16.7778 48.7329 16.7137 48.3555 16.715C47.6048 16.7689 46.898 17.0879 46.3618 17.6147C45.6528 18.2418 45.1094 19.0332 44.7795 19.9191C44.2855 21.3983 43.9306 22.9201 43.7193 24.4649L42.8649 29.5473H39.0515L41.7889 13.3215Z" fill="#F6F6F6" stroke="#2B2A29" stroke-width="0.52" stroke-miterlimit="22.93"/>
<path fill-rule="evenodd" clip-rule="evenodd" d="M52.5011 29.2791L56.2354 6.86603L60.1279 6.78711L58.8779 14.2844C59.4482 13.7365 60.0992 13.2787 60.8083 12.927C61.4374 12.6528 62.1155 12.5079 62.802 12.5009C63.4834 12.4597 64.1648 12.5815 64.7896 12.8561C65.4143 13.1306 65.9643 13.5499 66.3938 14.0792C67.3991 15.5308 67.8943 17.2735 67.8021 19.0354C67.8372 20.4925 67.645 21.9462 67.2325 23.3444C66.9338 24.5731 66.3962 25.7315 65.6502 26.7537C65.009 27.5874 64.2075 28.285 63.2925 28.8056C62.5517 29.2358 61.7128 29.4694 60.8557 29.4843C59.8925 29.5173 58.9427 29.251 58.1377 28.7223C57.3327 28.1935 56.7122 27.4284 56.362 26.5327L55.9189 29.2002L52.4537 29.2791H52.5011ZM57.5329 22.5709C57.4902 23.5381 57.793 24.4889 58.3873 25.2542C58.5995 25.5598 58.8835 25.8087 59.2146 25.9794C59.5456 26.15 59.9135 26.237 60.2861 26.2328C60.9765 26.2055 61.6292 25.9111 62.1058 25.412C62.7834 24.6915 63.2677 23.812 63.514 22.8551C63.8738 21.7168 64.0501 20.5287 64.0362 19.3353C64.0825 18.3727 63.7916 17.424 63.2134 16.652C62.9992 16.3545 62.7162 16.113 62.3884 15.9481C62.0605 15.7832 61.6976 15.6998 61.3304 15.705C60.8197 15.7341 60.3253 15.8949 59.8955 16.1715C59.4656 16.4482 59.115 16.8312 58.8779 17.2834C57.905 18.8702 57.4361 20.7134 57.5329 22.5709Z" fill="#F6F6F6" stroke="#2B2A29" stroke-width="0.52" stroke-miterlimit="22.93"/>
<path fill-rule="evenodd" clip-rule="evenodd" d="M72.3907 22.0974C72.2261 19.5216 72.9706 16.9696 74.4952 14.8842C75.179 14.0083 76.0554 13.3008 77.0568 12.8164C78.0582 12.332 79.1578 12.0836 80.2707 12.0905C81.1764 12.0253 82.0853 12.1598 82.9331 12.4844C83.7808 12.809 84.5465 13.3158 85.1758 13.9687C86.4466 15.4436 87.1083 17.3449 87.0271 19.2879C87.1141 21.737 86.3729 24.1442 84.9227 26.1223C84.2692 27.0514 83.3994 27.8084 82.3878 28.328C81.3763 28.8477 80.2533 29.1144 79.1156 29.1054C77.8796 29.1555 76.6536 28.8661 75.5712 28.2689C74.5426 27.6879 73.7234 26.7989 73.2294 25.7277C72.694 24.5909 72.4081 23.3533 72.3907 22.0974ZM83.2138 18.7512C83.2415 17.859 82.9498 16.9861 82.391 16.289C82.1398 15.9922 81.8238 15.7567 81.4672 15.6008C81.1106 15.4448 80.723 15.3725 80.334 15.3893C79.5147 15.401 78.732 15.7291 78.1504 16.3047C77.4422 17.0387 76.9449 17.9491 76.7105 18.9406C76.3848 19.9343 76.2192 20.9731 76.2199 22.0185C76.1735 23.008 76.4821 23.9817 77.0902 24.7649C77.3309 25.0698 77.6389 25.3153 77.9901 25.4823C78.3414 25.6493 78.7265 25.7333 79.1156 25.7277C79.6489 25.7056 80.1679 25.5493 80.6244 25.2733C81.0809 24.9974 81.46 24.6107 81.7264 24.1493C82.7724 22.5654 83.2927 20.6936 83.2138 18.7986V18.7512Z" fill="#F6F6F6" stroke="#2B2A29" stroke-width="0.52" stroke-miterlimit="22.93"/>
<path fill-rule="evenodd" clip-rule="evenodd" d="M104.259 12.0272H108.072L105.366 28.1898L101.553 28.2688L104.259 12.0272ZM105.287 5.85571H109.1L108.436 9.83324L104.622 9.91216L105.287 5.85571Z" fill="#F6F6F6" stroke="#2B2A29" stroke-width="0.52" stroke-miterlimit="22.93"/>
<path fill-rule="evenodd" clip-rule="evenodd" d="M114.591 11.822H118.199L117.866 13.9371C118.589 13.1503 119.433 12.4842 120.366 11.9641C121.131 11.5722 121.976 11.3615 122.835 11.3485C123.347 11.3101 123.86 11.3882 124.337 11.5769C124.814 11.7655 125.242 12.0599 125.588 12.4376C126.267 13.2626 126.622 14.3064 126.585 15.3734C126.54 16.4339 126.413 17.4893 126.205 18.5302L124.623 27.7164L120.81 27.7953L122.392 18.5775C122.552 17.7635 122.668 16.9416 122.74 16.1152C122.76 15.6361 122.596 15.1674 122.281 14.8052C122.128 14.6439 121.94 14.5191 121.732 14.4398C121.524 14.3606 121.301 14.329 121.079 14.3474C120.384 14.42 119.733 14.7197 119.227 15.1998C118.527 15.7775 117.983 16.5209 117.645 17.3622C117.223 18.6189 116.926 19.9142 116.759 21.2292L115.635 27.9058L111.838 27.9847L114.591 11.822Z" fill="#F6F6F6" stroke="#2B2A29" stroke-width="0.52" stroke-miterlimit="22.93"/>
<path fill-rule="evenodd" clip-rule="evenodd" d="M144.797 20.6453L135.224 20.8347V21.2451C135.203 22.1802 135.504 23.0943 136.079 23.8336C136.311 24.1347 136.611 24.3773 136.955 24.5417C137.298 24.7062 137.676 24.788 138.057 24.7807C138.722 24.7337 139.358 24.4869 139.881 24.0728C140.403 23.6587 140.788 23.0966 140.984 22.4604L144.402 23.0444C143.895 24.4686 142.989 25.7177 141.791 26.6431C140.717 27.4468 139.415 27.889 138.073 27.9059C137.198 27.9503 136.325 27.7958 135.519 27.454C134.713 27.1122 133.995 26.592 133.421 25.9329C132.155 24.4167 131.491 22.4907 131.553 20.519C131.491 18.4294 132.041 16.3669 133.136 14.5843C133.732 13.4857 134.614 12.5675 135.689 11.926C136.763 11.2845 137.991 10.9433 139.244 10.9382C140.021 10.8739 140.804 10.9932 141.527 11.2867C142.25 11.5801 142.893 12.0393 143.405 12.6271C144.521 14.0921 145.081 15.9036 144.987 17.7411C145.008 18.6983 144.934 19.6553 144.766 20.5979L144.797 20.6453ZM141.538 18.041C141.538 17.8515 141.538 17.7095 141.538 17.599C141.593 16.6517 141.344 15.7116 140.826 14.9158C140.597 14.6331 140.304 14.4086 139.971 14.2605C139.638 14.1123 139.275 14.0448 138.911 14.0634C138.507 14.0778 138.111 14.1799 137.75 14.3625C137.389 14.5451 137.073 14.8039 136.823 15.1209C136.13 15.999 135.702 17.0555 135.588 18.1672L141.538 18.041Z" fill="#F6F6F6" stroke="#2B2A29" stroke-width="0.52" stroke-miterlimit="22.93"/>
<path fill-rule="evenodd" clip-rule="evenodd" d="M147.646 36.8553L145.335 34.9928C120.936 36.9184 119.623 37.092 94.3849 35.8451L100.445 2.25708H96.6318L90.6032 35.6557C90.0019 37.9443 90.0178 37.2341 89.4481 39.3175C115.018 38.9861 119.227 38.844 145.367 38.7651C147.392 37.0604 145.81 38.3705 145.367 38.6704L147.646 36.8553Z" fill="#979898" stroke="#2B2A29" stroke-width="0.52" stroke-miterlimit="22.93"/>
<path fill-rule="evenodd" clip-rule="evenodd" d="M147.82 32.6568L145.478 30.889C121.743 35.6241 106.126 35.1506 94.0843 34.0457L99.6857 0.426147H95.8881L89.7329 37.3446L93.5305 37.4393C109.512 37.8654 126.759 38.5599 145.604 34.6613C147.82 32.6567 145.604 34.6613 145.604 34.6613L147.82 32.6568Z" fill="#F6F6F6" stroke="#2B2A29" stroke-width="0.52" stroke-miterlimit="22.93"/>
</svg>
