<svg width="17" height="17" viewBox="0 0 17 17" fill="none" xmlns="http://www.w3.org/2000/svg">
<path d="M16.741 15.4848L12.5489 11.2768C13.5885 10.0804 14.1742 8.57744 14.2093 7.01618C14.2444 5.45492 13.7268 3.92882 12.742 2.69004C11.7572 1.45127 10.3642 0.573972 8.7931 0.20311C7.22202 -0.167753 5.56692 -0.00998147 4.10128 0.650353C2.63563 1.31069 1.44718 2.43407 0.732282 3.83486C0.0173883 5.23565 -0.181154 6.83002 0.169462 8.35451C0.520078 9.879 1.39887 11.2424 2.66062 12.2193C3.92237 13.1963 5.49157 13.7284 7.10892 13.7277C8.56694 13.7315 9.99009 13.2974 11.1812 12.4854L15.4042 16.7233C15.4901 16.811 15.5938 16.8807 15.7088 16.9281C15.8237 16.9756 15.9475 16.9999 16.0726 16.9994C16.2541 16.9991 16.4317 16.9474 16.5831 16.8507C16.7345 16.7539 16.8532 16.6163 16.9243 16.455C16.9955 16.2937 17.0161 16.1158 16.9835 15.9433C16.9509 15.7709 16.8666 15.6114 16.741 15.4848ZM7.10892 1.79003C8.14817 1.79003 9.16409 2.08759 10.0282 2.64507C10.8923 3.20256 11.5658 3.99493 11.9635 4.922C12.3612 5.84906 12.4653 6.86917 12.2625 7.85334C12.0598 8.8375 11.5593 9.74152 10.8244 10.4511C10.0896 11.1606 9.15332 11.6438 8.13403 11.8396C7.11475 12.0353 6.05824 11.9349 5.0981 11.5509C4.13795 11.1669 3.31731 10.5166 2.73993 9.68224C2.16255 8.8479 1.85438 7.86699 1.85438 6.86355C1.8554 5.51827 2.40933 4.22837 3.39453 3.27712C4.37973 2.32587 5.71565 1.79102 7.10892 1.79003Z" fill="#E71917"/>
</svg>
