<svg width="17" height="17" viewBox="0 0 17 17" fill="none" xmlns="http://www.w3.org/2000/svg">
<path d="M16.7411 15.4847L12.549 11.2766C13.5886 10.0803 14.1743 8.57732 14.2094 7.01606C14.2445 5.4548 13.7269 3.92869 12.7421 2.68992C11.7573 1.45115 10.3643 0.57385 8.79323 0.202987C7.22215 -0.167875 5.56704 -0.0101035 4.1014 0.650231C2.63576 1.31057 1.4473 2.43394 0.732404 3.83474C0.0175104 5.23553 -0.181032 6.8299 0.169584 8.35439C0.5202 9.87888 1.39899 11.2423 2.66074 12.2192C3.9225 13.1962 5.4917 13.7283 7.10905 13.7276C8.56706 13.7314 9.99022 13.2973 11.1813 12.4853L15.4043 16.7232C15.4903 16.8108 15.5939 16.8805 15.7089 16.928C15.8238 16.9755 15.9477 16.9997 16.0727 16.9993C16.2543 16.999 16.4318 16.9473 16.5832 16.8505C16.7346 16.7538 16.8533 16.6162 16.9245 16.4549C16.9956 16.2936 17.0162 16.1157 16.9836 15.9432C16.951 15.7707 16.8667 15.6113 16.7411 15.4847ZM7.10905 1.78991C8.1483 1.78991 9.16421 2.08747 10.0283 2.64495C10.8924 3.20244 11.5659 3.99481 11.9636 4.92187C12.3613 5.84894 12.4654 6.86905 12.2626 7.85322C12.0599 8.83738 11.5594 9.74139 10.8246 10.4509C10.0897 11.1605 9.15344 11.6437 8.13416 11.8394C7.11487 12.0352 6.05836 11.9347 5.09822 11.5507C4.13808 11.1667 3.31743 10.5165 2.74005 9.68212C2.16267 8.84778 1.8545 7.86687 1.8545 6.86342C1.85552 5.51815 2.40945 4.22825 3.39465 3.277C4.37985 2.32574 5.71577 1.7909 7.10905 1.78991Z" fill="white"/>
</svg>
