<svg width="45" height="45" viewBox="0 0 45 45" fill="none" xmlns="http://www.w3.org/2000/svg">
<g clip-path="url(#clip0)">
<circle cx="22" cy="22" r="19" fill="white"/>
<path d="M22 0C17.6488 0 13.3953 1.29028 9.77746 3.70767C6.15958 6.12506 3.33979 9.56099 1.67466 13.581C0.00953233 17.6009 -0.426141 22.0244 0.422734 26.292C1.27161 30.5596 3.36691 34.4796 6.44366 37.5564C9.52042 40.6331 13.4404 42.7284 17.708 43.5773C21.9756 44.4261 26.3991 43.9905 30.419 42.3253C34.439 40.6602 37.875 37.8404 40.2923 34.2225C42.7097 30.6047 44 26.3512 44 22C44 16.1652 41.6822 10.5695 37.5564 6.44365C33.4306 2.31785 27.8348 0 22 0V0ZM22 7.74L35 15.86H9.00001L22 7.74ZM35.2 28.84C35.2 29.4659 34.9514 30.0662 34.5088 30.5088C34.0662 30.9514 33.4659 31.2 32.84 31.2H11.19C10.5641 31.2 9.96382 30.9514 9.52124 30.5088C9.07865 30.0662 8.83001 29.4659 8.83001 28.84V16.38C8.81522 16.2437 8.81522 16.1063 8.83001 15.97L21.28 23.74H21.33L21.61 23.85C21.7129 23.864 21.8172 23.864 21.92 23.85C22.0228 23.8652 22.1272 23.8652 22.23 23.85L22.5 23.74H22.55H22.6L35.18 16C35.1899 16.1365 35.1899 16.2735 35.18 16.41L35.2 28.84Z" fill="url(#paint0_linear)"/>
</g>
<defs>
<linearGradient id="paint0_linear" x1="9.89701e-06" y1="22.02" x2="44.04" y2="22.02" gradientUnits="userSpaceOnUse">
<stop stop-color="#F5841F"/>
<stop offset="0.48" stop-color="#EA1E25"/>
<stop offset="1" stop-color="#B32824"/>
</linearGradient>
<clipPath id="clip0">
<rect width="44.04" height="44.04" fill="white"/>
</clipPath>
</defs>
</svg>
