<svg width="30" height="45" viewBox="0 0 30 45" fill="none" xmlns="http://www.w3.org/2000/svg">
<path d="M14.8928 0.299159C11.7958 0.298579 8.77559 1.25038 6.25281 3.02204C3.73004 4.7937 1.83023 7.29705 0.817901 10.1835C-0.194427 13.07 -0.268886 16.1959 0.604891 19.1261C1.47867 22.0563 3.25719 24.6448 5.69283 26.5313V43.2962C5.68745 43.4433 5.71219 43.5899 5.76556 43.7273C5.81893 43.8647 5.89984 43.9901 6.00345 44.0959C6.10707 44.2018 6.23126 44.286 6.36861 44.3434C6.50595 44.4009 6.65364 44.4304 6.80283 44.4303C7.08973 44.4295 7.36534 44.32 7.57283 44.1246L14.9028 37.2214L22.2328 44.1246C22.389 44.2757 22.5873 44.3774 22.8024 44.4168C23.0175 44.4562 23.2396 44.4314 23.4403 44.3456C23.6411 44.2599 23.8113 44.1171 23.9293 43.9354C24.0473 43.7537 24.1078 43.5415 24.1028 43.3258V26.5609C26.5513 24.6772 28.3413 22.0858 29.2223 19.1492C30.1033 16.2126 30.0313 13.0778 29.0163 10.1836C28.0013 7.28939 26.0941 4.78054 23.5616 3.00817C21.0292 1.23581 17.9982 0.288616 14.8928 0.299159ZM27.5628 14.9931C27.5648 17.4648 26.8234 19.8815 25.4324 21.9375C24.0414 23.9936 22.0633 25.5966 19.7484 26.5438C17.4334 27.491 14.8856 27.7399 12.4272 27.2589C9.96878 26.7779 7.71026 25.5887 5.93733 23.8416C4.1644 22.0946 2.9567 19.8682 2.46702 17.4442C1.97733 15.0202 2.22765 12.5074 3.18632 10.2237C4.14499 7.94001 5.76893 5.98801 7.85272 4.61462C9.93651 3.24124 12.3865 2.50818 14.8928 2.50818C18.2506 2.51079 21.4702 3.82669 23.8454 6.16722C26.2207 8.50775 27.5575 11.6818 27.5628 14.9931ZM21.8628 27.981V40.7322L15.6628 34.9138C15.4565 34.7166 15.1801 34.6069 14.8928 34.6081C14.752 34.6072 14.6123 34.6337 14.4819 34.6862C14.3515 34.7387 14.2329 34.816 14.1328 34.9138L7.93283 40.7322V27.912C10.0709 29.0493 12.4599 29.6504 14.8891 29.6625C17.3183 29.6745 19.7133 29.097 21.8628 27.981Z" fill="url(#paint0_linear)"/>
<defs>
<linearGradient id="paint0_linear" x1="0" y1="988.061" x2="888.758" y2="988.061" gradientUnits="userSpaceOnUse">
<stop stop-color="#F47E1F"/>
<stop offset="0.03125" stop-color="#EB2924"/>
<stop offset="0.0572917" stop-color="#B52724"/>
<stop offset="0.619792" stop-color="#EA1E25"/>
<stop offset="0.880208" stop-color="#B52724"/>
</linearGradient>
</defs>
</svg>
