<svg width="44" height="44" viewBox="0 0 44 44" fill="none" xmlns="http://www.w3.org/2000/svg">
<path d="M39.5286 28.8951L42.5286 25.9366C43.1244 25.3489 43.5564 24.6196 43.7829 23.8192C44.0094 23.0188 44.0228 22.1743 43.8217 21.3673C43.6207 20.5603 43.212 19.818 42.6351 19.2123C42.0583 18.6065 41.3327 18.1577 40.5286 17.9092C41.1341 17.0906 41.4566 16.1018 41.4486 15.0887C41.446 13.8105 40.93 12.5855 40.0135 11.6817C39.097 10.7779 37.8547 10.2689 36.5586 10.2663H36.3986C36.414 9.61049 36.2934 8.95845 36.0444 8.35011C35.7954 7.74178 35.4232 7.18995 34.9505 6.72838C34.4777 6.26681 33.9145 5.90521 33.2952 5.66571C32.6759 5.42621 32.0135 5.31384 31.3486 5.33548V5.11852C31.3597 4.48793 31.2433 3.86148 31.0064 3.27566C30.7695 2.68985 30.4167 2.15639 29.9686 1.70637C29.0505 0.806058 27.8084 0.300696 26.5136 0.300696C25.2189 0.300696 23.9768 0.806058 23.0586 1.70637L22.0586 2.69254L21.0586 1.70637C20.3647 1.02409 19.4789 0.563147 18.5161 0.383314C17.5533 0.203481 16.558 0.31305 15.6591 0.697815C14.7602 1.08258 13.9993 1.72479 13.475 2.54118C12.9507 3.35756 12.6872 4.31046 12.7186 5.27631H12.5586C11.8919 5.25846 11.2286 5.37531 10.6093 5.61965C9.99012 5.864 9.42813 6.23068 8.95793 6.69715C8.48773 7.16362 8.11926 7.72002 7.87518 8.33213C7.6311 8.94423 7.51658 9.59911 7.53865 10.2565H7.37865C6.08082 10.2591 4.83705 10.7694 3.92028 11.6753C3.00352 12.5812 2.48864 13.8088 2.48864 15.0887C2.49725 16.121 2.84849 17.122 3.48865 17.9388C2.68242 18.1779 1.95228 18.6179 1.36862 19.2162C0.784966 19.8146 0.367489 20.5512 0.156447 21.3549C-0.0545945 22.1587 -0.0520804 23.0025 0.163747 23.805C0.379574 24.6075 0.801434 25.3416 1.38864 25.9366L4.38865 28.8951C4.56674 29.0694 4.75722 29.2309 4.95864 29.3784L4.06865 30.256C3.64062 30.6941 3.3122 31.2171 3.10528 31.7901C2.89836 32.3632 2.81769 32.9732 2.86864 33.5794C2.94778 34.7924 3.47839 35.9338 4.35864 36.7845L9.44865 41.814C10.3599 42.7119 11.5954 43.2162 12.8836 43.2162C14.1718 43.2162 15.4073 42.7119 16.3186 41.814L18.6886 39.4768C20.8504 39.9371 23.0869 39.9371 25.2486 39.4768L27.6186 41.814C28.069 42.2583 28.6038 42.6107 29.1923 42.8512C29.7808 43.0916 30.4116 43.2154 31.0486 43.2154C31.6857 43.2154 32.3165 43.0916 32.905 42.8512C33.4935 42.6107 34.0283 42.2583 34.4786 41.814L39.5786 36.7845C41.4786 34.9206 41.6886 32.1002 40.0586 30.4927L38.9686 29.4573L39.4986 28.9346L39.5286 28.8951ZM15.8786 3.55051C16.3005 3.13498 16.8724 2.90159 17.4686 2.90159C18.0649 2.90159 18.6368 3.13498 19.0586 3.55051L23.0586 7.4952C23.3715 7.80682 23.5842 8.20252 23.6701 8.63278C23.7559 9.06303 23.7112 9.50871 23.5415 9.91402C23.3718 10.3193 23.0846 10.6662 22.7158 10.9114C22.3471 11.1565 21.9133 11.2889 21.4686 11.292C20.908 11.2747 20.3736 11.0534 19.9686 10.6707L15.9686 6.72598C15.7492 6.52456 15.5726 6.28208 15.4491 6.01269C15.3256 5.7433 15.2577 5.45236 15.2493 5.15683C15.2409 4.8613 15.2923 4.56708 15.4003 4.29131C15.5084 4.01553 15.671 3.76371 15.8786 3.55051ZM10.8286 11.6568C10.407 11.2397 10.1706 10.6744 10.1715 10.0853C10.1724 9.4963 10.4106 8.93175 10.8336 8.51589C11.2567 8.10002 11.8299 7.86691 12.4272 7.86784C13.0245 7.86876 13.597 8.10365 14.0186 8.52082L18.0186 12.4655L19.0186 13.4517C19.2397 13.6548 19.417 13.8998 19.54 14.172C19.663 14.4441 19.7291 14.738 19.7344 15.0359C19.7398 15.3338 19.6842 15.6298 19.571 15.9061C19.4579 16.1823 19.2894 16.4333 19.0758 16.644C18.8621 16.8547 18.6076 17.0208 18.3274 17.1324C18.0473 17.244 17.7472 17.2988 17.4451 17.2936C17.143 17.2883 16.845 17.2231 16.569 17.1018C16.293 16.9806 16.0446 16.8057 15.8386 16.5877L14.8386 15.6015L10.8386 11.6568H10.8286ZM5.82865 13.501C6.25052 13.0855 6.82239 12.8521 7.41865 12.8521C8.0149 12.8521 8.58677 13.0855 9.00865 13.501L13.0086 17.4457C13.4276 17.863 13.6626 18.4265 13.6626 19.0137C13.6626 19.6009 13.4276 20.1644 13.0086 20.5817C12.5868 20.9972 12.0149 21.2306 11.4186 21.2306C10.8224 21.2306 10.2505 20.9972 9.82865 20.5817L5.82865 16.637C5.40729 16.221 5.17063 15.657 5.17063 15.069C5.17063 14.481 5.40729 13.917 5.82865 13.501ZM3.27865 24.1221C2.92848 23.6954 2.75108 23.156 2.7807 22.6079C2.81032 22.0598 3.04488 21.542 3.43904 21.1546C3.8332 20.7671 4.359 20.5374 4.91485 20.5099C5.47071 20.4824 6.01716 20.6591 6.44865 21.0058L9.44865 23.9643C9.87 24.3803 10.1067 24.9443 10.1067 25.5323C10.1067 26.1203 9.87 26.6843 9.44865 27.1003C9.2394 27.3085 8.99006 27.4733 8.71529 27.5851C8.44052 27.6968 8.14587 27.7533 7.84865 27.7512H7.52865C7.06285 27.6825 6.63171 27.4681 6.29865 27.1397L3.27865 24.1221ZM18.6086 36.7845H17.9686H17.9086H17.8486H17.7886H17.7386H17.6686H17.6186H17.5686H17.5086H17.4386L14.5486 39.6345C14.344 39.8388 14.1003 40.001 13.8317 40.1116C13.563 40.2223 13.2748 40.2793 12.9836 40.2793C12.6925 40.2793 12.4043 40.2223 12.1356 40.1116C11.867 40.001 11.6233 39.8388 11.4186 39.6345L6.31865 34.6149C5.89525 34.2027 5.63919 33.652 5.59865 33.0666C5.62631 32.7284 5.75507 32.4058 5.96865 32.1396L7.78865 30.3448H7.86865C8.66495 30.3464 9.44957 30.1559 10.154 29.7897C10.8585 29.4236 11.4614 28.893 11.9101 28.2443C12.3589 27.5956 12.6398 26.8484 12.7285 26.068C12.8171 25.2875 12.7107 24.4976 12.4186 23.767C13.3426 23.575 14.1901 23.1229 14.8586 22.4653C15.6081 21.7312 16.0928 20.7751 16.2386 19.7435C16.6376 19.8421 17.0474 19.8917 17.4586 19.8914C18.1003 19.894 18.7362 19.7717 19.33 19.5317C19.9237 19.2916 20.4636 18.9384 20.9187 18.4923C21.3739 18.0462 21.7353 17.516 21.9824 16.9319C22.2295 16.3479 22.3573 15.7215 22.3586 15.0887C22.359 14.6831 22.3086 14.279 22.2086 13.8856C23.258 13.7385 24.2284 13.253 24.9686 12.505C25.8816 11.5995 26.394 10.3746 26.394 9.09773C26.394 7.82088 25.8816 6.59592 24.9686 5.6905L23.8386 4.57613L24.8386 3.58996C25.0446 3.37195 25.293 3.1971 25.569 3.07582C25.845 2.95455 26.143 2.88934 26.4451 2.88408C26.7472 2.87882 27.0473 2.93363 27.3274 3.04523C27.6076 3.15682 27.8621 3.32293 28.0758 3.53363C28.2894 3.74433 28.4579 3.99532 28.571 4.27161C28.6842 4.5479 28.7398 4.84383 28.7344 5.14176C28.7291 5.4397 28.663 5.73352 28.54 6.0057C28.417 6.27788 28.2397 6.52285 28.0186 6.72598C27.895 6.84553 27.7968 6.98824 27.7298 7.14574C27.6628 7.30324 27.6284 7.47234 27.6286 7.64312C27.6279 7.81399 27.662 7.98326 27.729 8.14083C27.796 8.29841 27.8945 8.44106 28.0186 8.56026C28.1397 8.68252 28.2844 8.77967 28.4441 8.846C28.6038 8.91233 28.7754 8.9465 28.9486 8.9465C29.1219 8.9465 29.2935 8.91233 29.4532 8.846C29.6129 8.77967 29.7576 8.68252 29.8786 8.56026C30.0881 8.35435 30.3366 8.19114 30.6101 8.07994C30.8835 7.96875 31.1764 7.91176 31.4722 7.91222C31.7679 7.91267 32.0607 7.97057 32.3338 8.08261C32.6068 8.19465 32.8548 8.35863 33.0636 8.5652C33.2724 8.77176 33.438 9.01685 33.5507 9.28649C33.6635 9.55613 33.7212 9.84503 33.7208 10.1367C33.7203 10.4284 33.6616 10.7171 33.548 10.9864C33.4344 11.2557 33.2681 11.5002 33.0586 11.7062C32.8144 11.9505 32.6778 12.2801 32.6786 12.6233C32.6789 12.9662 32.8153 13.2955 33.0586 13.5404C33.1813 13.6618 33.327 13.7581 33.4874 13.8238C33.6479 13.8895 33.8199 13.9233 33.9936 13.9233C34.1674 13.9233 34.3394 13.8895 34.4998 13.8238C34.6603 13.7581 34.806 13.6618 34.9286 13.5404C35.3505 13.1249 35.9224 12.8915 36.5186 12.8915C37.1149 12.8915 37.6868 13.1249 38.1086 13.5404C38.3238 13.7397 38.4966 13.9792 38.6168 14.2451C38.737 14.5109 38.8022 14.7977 38.8086 15.0887C38.8087 15.6704 38.5791 16.2292 38.1686 16.6469L36.2786 18.5206C36.05 18.7435 35.9124 19.0415 35.8922 19.3579C35.8719 19.6743 35.9703 19.987 36.1686 20.2365L36.2386 20.3253C36.4365 20.5734 36.7189 20.7421 37.0335 20.8002C37.348 20.8582 37.6733 20.8016 37.9486 20.6409C38.4195 20.3614 38.9778 20.2616 39.5181 20.3601C40.0585 20.4587 40.5436 20.7489 40.8819 21.176C41.2203 21.603 41.3884 22.1374 41.3546 22.6783C41.3209 23.2193 41.0875 23.7293 40.6986 24.1122L37.6986 27.0707L31.1986 33.4808C29.5804 35.0752 27.5641 36.2202 25.3536 36.8002C23.143 37.3803 20.8164 37.3749 18.6086 36.7845ZM38.1986 32.327C38.7786 32.899 38.5486 34.1218 37.7186 34.9502L32.6186 39.9698C32.414 40.1741 32.1703 40.3363 31.9017 40.4469C31.633 40.5576 31.3448 40.6146 31.0536 40.6146C30.7625 40.6146 30.4743 40.5576 30.2056 40.4469C29.937 40.3363 29.6933 40.1741 29.4886 39.9698L28.0886 38.5892C29.9077 37.8243 31.5635 36.7268 32.9686 35.3546L37.0786 31.3014L38.1986 32.327Z" fill="url(#paint0_linear)"/>
<defs>
<linearGradient id="paint0_linear" x1="-0.0313553" y1="21.775" x2="43.9687" y2="21.775" gradientUnits="userSpaceOnUse">
<stop stop-color="#F5841F"/>
<stop offset="0.49" stop-color="#EA1E25"/>
<stop offset="1" stop-color="#B32824"/>
</linearGradient>
</defs>
</svg>
