<svg width="24" height="25" viewBox="0 0 24 25" fill="none" xmlns="http://www.w3.org/2000/svg">
<path d="M23.1006 7.56132V7.52644V7.49157C23.1006 7.49157 23.1006 7.49157 23.1006 7.45669C23.1006 7.42182 23.1006 7.45669 23.1006 7.45669V7.42763V7.39857H23.0717L23.0079 7.3695H22.979H22.9442H22.5793L5.14865 4.72477V2.28348C5.15174 2.25839 5.15174 2.23301 5.14865 2.20791C5.14865 2.20791 5.14865 2.17304 5.14865 2.16141C5.14865 2.14979 5.14865 2.16141 5.14865 2.12073C5.14642 2.11117 5.14642 2.10122 5.14865 2.09166V2.04516V2.00447C5.1511 1.99494 5.1511 1.98494 5.14865 1.97541L5.1023 1.92891H5.06755L4.80687 1.70222H4.74315L0.948844 0.0456265C0.779845 -0.0260578 0.589388 -0.0274423 0.419372 0.0417774C0.249356 0.110997 0.113707 0.245151 0.0422664 0.414727C-0.0291741 0.584302 -0.030554 0.775409 0.0384303 0.946006C0.107415 1.1166 0.241112 1.25271 0.410111 1.3244L3.75837 2.74267V17.9775C3.76107 18.666 4.01273 19.3301 4.46659 19.8464C4.92046 20.3628 5.54568 20.6963 6.22611 20.785C5.98801 21.0991 5.81873 21.4601 5.72936 21.8444C5.63998 22.2287 5.63253 22.6277 5.70748 23.0151C5.78244 23.4025 5.93811 23.7696 6.16431 24.0925C6.39051 24.4153 6.68212 24.6865 7.02006 24.8884C7.35799 25.0903 7.73462 25.2183 8.12527 25.264C8.51592 25.3096 8.91178 25.272 9.28692 25.1535C9.66206 25.035 10.008 24.8383 10.3021 24.5763C10.5963 24.3143 10.8319 23.9929 10.9936 23.6332C11.25 23.1983 11.386 22.7027 11.3875 22.1975C11.3879 21.7008 11.2559 21.2132 11.0052 20.785H17.2441C16.9889 21.2116 16.8547 21.7 16.856 22.1975C16.856 22.7516 17.0197 23.2932 17.3265 23.754C17.6333 24.2147 18.0694 24.5738 18.5796 24.7859C19.0898 24.9979 19.6512 25.0534 20.1928 24.9453C20.7344 24.8372 21.232 24.5704 21.6224 24.1785C22.0129 23.7867 22.2789 23.2875 22.3866 22.744C22.4943 22.2006 22.439 21.6372 22.2277 21.1253C22.0164 20.6134 21.6585 20.1758 21.1993 19.8679C20.7402 19.5601 20.2003 19.3958 19.6481 19.3958H6.58527C6.20813 19.3944 5.84641 19.2454 5.57704 18.9805C5.30767 18.7157 5.1519 18.3558 5.14285 17.9775V16.0652C5.58145 16.3193 6.0788 16.4536 6.58527 16.4546H20.3201C20.6921 16.4554 21.0606 16.3826 21.4045 16.2405C21.7485 16.0983 22.0612 15.8896 22.3248 15.6262C22.5884 15.3628 22.7977 15.0499 22.9407 14.7053C23.0838 14.3608 23.1578 13.9913 23.1586 13.6181V7.75895C23.1613 7.74946 23.1613 7.73938 23.1586 7.72989C23.1586 7.72989 23.1586 7.72989 23.1586 7.69501C23.1586 7.66013 23.1586 7.69501 23.1586 7.66013C23.1586 7.62526 23.1586 7.66013 23.1586 7.62526L23.1006 7.56132ZM10.032 22.1916C10.0331 22.4724 9.95123 22.7472 9.79661 22.9812C9.642 23.2152 9.42165 23.3979 9.16348 23.5061C8.90531 23.6143 8.62093 23.6432 8.34637 23.5892C8.07181 23.5351 7.81941 23.4005 7.62116 23.2024C7.4229 23.0043 7.28771 22.7516 7.2327 22.4763C7.17769 22.201 7.20534 21.9155 7.31215 21.6561C7.41896 21.3966 7.60012 21.1747 7.83268 21.0186C8.06525 20.8625 8.33875 20.7792 8.61855 20.7792C8.80389 20.7784 8.98756 20.8144 9.15902 20.885C9.33047 20.9557 9.48633 21.0596 9.61766 21.1908C9.74899 21.3221 9.8532 21.478 9.9243 21.6498C9.9954 21.8215 10.032 22.0057 10.032 22.1916ZM21.0384 22.1916C21.0382 22.4732 20.9541 22.7482 20.797 22.9815C20.6399 23.2148 20.4169 23.3956 20.1567 23.5008C19.8964 23.606 19.6107 23.6308 19.3364 23.5719C19.062 23.513 18.8114 23.3732 18.6168 23.1704C18.4221 22.9676 18.2923 22.7111 18.2441 22.4337C18.1958 22.1564 18.2312 21.8709 18.3458 21.6139C18.4604 21.3569 18.6489 21.1401 18.8871 20.9914C19.1254 20.8426 19.4025 20.7687 19.6829 20.7792C20.0511 20.7868 20.4018 20.9389 20.6596 21.203C20.9173 21.4671 21.0616 21.822 21.0616 22.1916H21.0384ZM20.3201 15.0712H6.58527C6.39536 15.0712 6.20732 15.0336 6.03194 14.9605C5.85656 14.8874 5.69729 14.7802 5.56327 14.6452C5.42926 14.5102 5.32313 14.35 5.25098 14.1737C5.17884 13.9974 5.14209 13.8086 5.14285 13.6181V6.11979L21.7625 8.44484V13.6413C21.7579 14.0221 21.6039 14.3858 21.3339 14.6535C21.0639 14.9211 20.6996 15.0712 20.3201 15.0712Z" fill="white"/>
</svg>
